<?xml version="1.0" standalone="no"?>
<!DOCTYPE svg PUBLIC "-//W3C//DTD SVG 1.1//EN" "http://www.w3.org/Graphics/SVG/1.1/DTD/svg11.dtd" >
<svg xmlns="http://www.w3.org/2000/svg">
<metadata></metadata>
<defs>
<font id="ml-nila03regular" horiz-adv-x="604" >
<font-face units-per-em="2048" ascent="1638" descent="-410" />
<missing-glyph horiz-adv-x="475" />
<glyph horiz-adv-x="0" />
<glyph unicode="&#xd;" horiz-adv-x="475" />
<glyph unicode=" "  horiz-adv-x="475" />
<glyph unicode="&#x09;" horiz-adv-x="475" />
<glyph unicode="&#xa0;" horiz-adv-x="475" />
<glyph unicode="!" horiz-adv-x="389" d="M223 262h-43q23 178 41.5 327.5t28.5 272.5q0 12 6 19q8 12 43 18q23 8 40 11t28 3q16 0 16 -16q0 -14 -6 -27q-10 -25 -64 -243zM184 176q29 0 48.5 -21.5t19.5 -54.5q0 -51 -22.5 -75.5t-57.5 -24.5q-29 0 -48.5 18.5t-19.5 51.5q0 47 27 80q20 26 53 26z" />
<glyph unicode="&#x22;" horiz-adv-x="516" d="M330 930l69 198q14 41 33 54.5t47 13.5q33 0 33 -22q0 -10 -16 -37l-119 -201q-10 -18 -27 -18q-26 0 -20 12zM104 930l66 198q16 41 35.5 54.5t44.5 13.5q39 0 39 -22q0 -6 -19 -37l-118 -201q-10 -18 -27 -18q-25 0 -21 12z" />
<glyph unicode="#" horiz-adv-x="946" d="M211 2l86 274h-186l26 89h187l59 190h-184l26 86h185l82 262h88l-82 -262h172l82 262h90l-84 -262h186l-29 -86h-184l-59 -190h186l-27 -89h-186l-86 -274h-90l90 274h-174l-88 -274h-86zM412 365h172l59 190h-174z" />
<glyph unicode="$" horiz-adv-x="790" d="M600 905h53l-28 -78h18q66 0 107 -19.5t41 -43.5q0 -16 -15.5 -25.5t-38.5 -9.5h-14q-6 0 -12 2q-4 2 -12.5 7t-24.5 16q-29 18 -68 24l-90 -239q82 -47 114 -91.5t32 -82.5q0 -78 -80 -141.5t-207 -80.5l-53 -141h-54l54 135q-8 -2 -21 -2h-20q-100 0 -135 15.5 t-35 39.5q0 14 15 25.5t34 11.5q18 0 67 -18q18 -4 30.5 -9t16.5 -5q25 -6 64 -7l98 279q-78 45 -102.5 78t-24.5 78q0 63 72 125q76 61 188 75zM555 780q-78 -10 -117 -44t-39 -72q0 -41 74 -99zM391 188q86 12 135 48t49 83q0 23 -14 46q-10 12 -28.5 33.5t-51.5 43.5z " />
<glyph unicode="%" horiz-adv-x="950" d="M231 6q33 51 62 97.5t51 86.5l289 500q35 61 64.5 114.5t56.5 100.5q6 -4 22.5 -5t38.5 -5q-39 -57 -70.5 -112.5t-66.5 -110.5l-254 -439q-35 -61 -66.5 -119.5t-60.5 -113.5q-20 4 -41 4h-10q-11 0 -15 2zM352 905q66 0 108 -43t42 -123q0 -66 -22.5 -123t-63.5 -110 q-70 -82 -160 -82q-66 0 -108 44t-42 118q0 119 70 219q72 100 176 100zM340 872q-49 0 -90 -94q-43 -96 -43 -207q0 -57 19.5 -85.5t43.5 -28.5q41 0 76 73q53 113 53 228q0 61 -20 90q-16 24 -39 24zM793 475q66 0 107.5 -43t41.5 -121q0 -129 -86 -233q-72 -78 -160 -78 q-66 0 -107.5 41t-41.5 115q0 119 70 219t176 100zM782 444q-49 0 -92 -94q-20 -49 -31.5 -100t-11.5 -107q0 -59 19.5 -86.5t44.5 -27.5q41 0 77 71q51 113 52 228q0 63 -21 92q-17 24 -37 24z" />
<glyph unicode="&#x26;" horiz-adv-x="1073" d="M893 735q-10 -20 -17.5 -35.5t-13.5 -37t-14 -53t-21 -85.5q-43 -182 -69 -241q-20 -47 -50 -85t-69 -77q74 -82 121 -113q43 -20 88 -20q47 0 81 25.5t34 60.5q0 8 -9 30q-8 14 -8 31q0 16 11.5 27.5t27.5 11.5q39 0 39 -51q0 -35 -16.5 -65.5t-44.5 -61.5 q-29 -29 -64 -41t-76 -12q-72 0 -139 49q-12 10 -32.5 34.5t-53.5 57.5q-49 -35 -100.5 -56.5t-108.5 -21.5q-59 0 -110.5 21.5t-92.5 58.5q-80 80 -80 195q0 109 78 190q76 78 185 78q59 0 88.5 -22.5t29.5 -53.5q0 -76 -129 -102q29 -10 54.5 -24.5t50.5 -35.5 q33 -29 68.5 -67.5t76.5 -87.5q29 33 46.5 61.5t33.5 73.5q4 18 14.5 50t22.5 79q10 47 17.5 74.5t11.5 44.5q23 61 43 105t49 91q-57 0 -96 -5t-62 -15q-66 -31 -65 -86q0 -18 10 -56q2 -10 3 -17t1 -11q0 -14 -10.5 -24.5t-26.5 -10.5t-26.5 15.5t-10.5 41.5 q0 59 35 113.5t94 83.5q29 14 72 20.5t94 6.5h31q29 -4 43 -5h18q47 0 47 37v8t-4 15v18q0 18 11.5 28.5t23.5 10.5q14 0 25.5 -12t11.5 -39q0 -43 -43 -77t-129 -40zM254 397q86 -4 116.5 14.5t30.5 49.5q0 23 -14 36t-41 13q-59 0 -110 -53q-49 -55 -50 -127 q-4 -41 19.5 -86t60.5 -81t84 -58.5t94 -20.5q66 0 129 39q-53 63 -81.5 98t-38.5 41q-35 37 -81 66.5t-118 58.5v10z" />
<glyph unicode="'" horiz-adv-x="296" d="M119 920l67 210q16 43 35 57.5t47 14.5q35 0 35 -24q0 -4 -4 -13.5t-14 -25.5l-119 -215q-12 -18 -29 -19q-24 1 -18 15z" />
<glyph unicode="(" horiz-adv-x="595" d="M709 1020q0 -10 -27 -19q-25 -10 -62.5 -32.5t-91.5 -65.5q-213 -158 -301 -407q-45 -127 -45 -244q0 -139 49 -234q16 -39 30.5 -65.5t29.5 -40.5q6 -6 6 -16q0 -12 -12 -13q-6 0 -27 17q-63 66 -108 176q-43 111 -44 221q0 147 66 275t170 241q53 53 116.5 100.5 t139.5 84t96 36.5q15 0 15 -14z" />
<glyph unicode=")" horiz-adv-x="690" d="M-10 -117q0 8 30 19q55 14 177 100q127 84 213 184q86 104 135 232q53 135 53 252q0 147 -57 243q-20 39 -37 66t-31 41q-8 12 -8 16q0 12 14 13q14 0 31 -17q72 -66 127 -180q25 -59 38 -116.5t13 -112.5q0 -152 -76.5 -282t-199.5 -245q-121 -115 -297 -190 q-84 -37 -107 -37q-18 0 -18 14z" />
<glyph unicode="*" horiz-adv-x="825" d="M489 905q10 -59 26.5 -118.5t39.5 -120.5q16 -2 28.5 -3t22.5 -1q33 0 82 4t115 12q4 -12 8 -24.5t8 -24.5q-123 -66 -213 -142q31 -106 94 -223q-10 -8 -19 -14t-19 -14q-106 86 -199 153q-90 -53 -197 -153q-12 8 -23.5 16t-21.5 16q63 119 98 219q-51 39 -102 74 t-104 68q4 12 8 24.5t8 24.5q59 -8 105.5 -11t76.5 -3h25h18t21 2q23 70 37 129t22 110l29 2h10q10 0 16 -2zM467 647q-43 0 -74 -30.5t-31 -73.5t31 -75t74 -32t73.5 32t30.5 75t-30.5 73.5t-73.5 30.5z" />
<glyph unicode="+" horiz-adv-x="897" d="M453 504v332h98v-332h344v-96h-344v-336h-98v336h-347v96h347z" />
<glyph unicode="," horiz-adv-x="366" d="M55 -305l-18 63q92 72 139 140q33 45 33 73q0 29 -25 70q-23 51 -22 76q0 37 26.5 65.5t63.5 28.5q41 0 70.5 -34t29.5 -81q0 -53 -29.5 -119.5t-91.5 -132.5q-43 -47 -87 -83.5t-89 -65.5z" />
<glyph unicode="-" d="M137 451h463l-25 -101h-464z" />
<glyph unicode="." horiz-adv-x="321" d="M213 240q39 0 65.5 -29t26.5 -74q0 -66 -30.5 -100.5t-77.5 -34.5q-39 0 -66 25.5t-27 68.5q0 61 37 109q29 35 72 35z" />
<glyph unicode="/" horiz-adv-x="694" d="M106 -119l539 1243h55l-538 -1243h-56z" />
<glyph unicode="0" horiz-adv-x="759" d="M502 903q115 0 184.5 -76.5t69.5 -232.5q0 -217 -121 -404q-117 -184 -287 -184q-98 0 -170 78q-70 76 -69 217q0 78 17 159t52 158q72 156 156 220q43 33 84 49t84 16zM487 858q-47 0 -98 -59q-53 -59 -96 -221q-41 -170 -41 -308q0 -117 36 -170t85 -53q45 0 82 41 q59 51 112 215q25 78 36 160t11 162q0 129 -39 188q-33 45 -88 45z" />
<glyph unicode="1" horiz-adv-x="718" d="M682 905h29l-125 -397l-105 -369q-6 -25 -10 -40t-4 -25q0 -12 15.5 -18.5t70.5 -12.5q20 0 38.5 -2t37.5 -6l-17 -35q-98 8 -162.5 11t-103.5 3q-55 0 -114.5 -3t-125.5 -11l15 35q23 6 50.5 11t55.5 9q59 6 78 27q31 27 66 125l94 307q23 88 36 135t13 60q0 29 -29 28 q-23 0 -180 -63l-16 41q117 45 187.5 74.5t96.5 46.5q25 16 51.5 31t57.5 38z" />
<glyph unicode="2" horiz-adv-x="831" d="M326 682l-45 16q68 117 140.5 162t164.5 45q104 0 174 -59q63 -57 63 -139q0 -49 -23.5 -100.5t-76.5 -104.5q-16 -18 -63.5 -54t-127.5 -96q-102 -78 -174.5 -140t-117.5 -114q59 2 116.5 3t116.5 1h37q23 0 31 -2q59 -2 86 11q20 12 75 88h62q-72 -84 -123 -201 q-63 10 -131 12t-141 2h-111q-63 0 -149 -4l16 43q41 47 97.5 103.5t136 122t128 106.5t70.5 66q35 39 57.5 71.5t36.5 65.5q25 39 25 96q0 68 -42 106.5t-106 38.5q-53 0 -101 -31.5t-101 -113.5z" />
<glyph unicode="3" horiz-adv-x="745" d="M338 735l-35 23q43 45 75 70.5t50 37.5q70 41 147 41q78 0 121 -34.5t43 -90.5q0 -117 -196 -245q98 -4 137 -45t45 -123q0 -143 -162 -267q-139 -102 -284 -102q-33 0 -64 7t-55.5 18.5t-39 28t-14.5 34.5q0 16 13.5 28.5t32.5 12.5q27 0 59 -27q23 -20 38 -31.5 t23 -15.5q35 -10 52 -10q66 0 145 68q117 98 117 221q0 59 -36 94t-95 35q-20 0 -44 -3t-53 -14l7 48q53 16 101 45.5t89 72.5q59 63 59 119q0 47 -25.5 72.5t-70.5 25.5q-98 0 -180 -94z" />
<glyph unicode="4" horiz-adv-x="724" d="M690 322l-16 -78h-117l-53 -244h-107l54 244h-201q-76 0 -111 -4h-12q-23 0 -23 16q0 6 17 35q43 72 104.5 149.5t143.5 163.5q80 86 162.5 162t170.5 145h21l-31 -120l-65 -259l-52 -210h115zM469 322q4 18 10 49.5t21 79.5l71 288q-72 -68 -126 -121t-89 -92 q-70 -76 -161 -204h274z" />
<glyph unicode="5" horiz-adv-x="839" d="M791 911h40l-53 -108q-8 -10 -24.5 -16.5t-71.5 -6.5q-86 0 -141.5 -2t-83.5 -6q-27 -70 -27 -84q0 -27 45 -49q41 -16 68.5 -30.5t46 -30t32 -34t23.5 -42.5q18 -47 19 -107q0 -158 -127 -278q-133 -117 -291 -117q-74 0 -111 16q-29 18 -29 47q0 20 12.5 33t28.5 13 q10 0 17.5 -2.5t32.5 -18.5q31 -18 51 -24.5t49 -6.5q104 0 188 84q84 82 84 189q0 72 -39 125q-43 59 -120 86q-33 14 -43.5 26.5t-10.5 30.5q0 20 25 98l53 154q31 14 78 18l168 2q55 2 75 10t36 31z" />
<glyph unicode="6" horiz-adv-x="808" d="M815 911l-10 -43q-104 -8 -184 -30.5t-142.5 -64.5t-107.5 -106.5t-78 -156.5q92 68 192 68q94 0 152.5 -57.5t58.5 -174.5q0 -152 -100 -258q-90 -86 -223 -86q-117 0 -190.5 76t-73.5 217q0 160 96 311q94 145 252 228q153 77 358 77zM279 453q-12 -57 -17.5 -104.5 t-5.5 -86.5q0 -121 40 -171t99 -50q68 0 105 53q51 80 51 213q0 117 -35 164t-86 47q-61 1 -151 -65z" />
<glyph unicode="7" horiz-adv-x="786" d="M211 721h-41q2 4 5 17.5t13 35.5q16 45 28.5 79t19.5 62q86 -12 282 -12h133q66 0 131 2q-137 -160 -223 -261t-121 -150q-119 -162 -162 -250q-23 -43 -30 -121q-12 -78 -31 -96q-18 -20 -47 -21q-25 0 -43.5 16.5t-18.5 45.5q0 72 56 163q43 70 133 183.5t237 275.5 l105 119h-305q-57 0 -72 -12q-10 -6 -21.5 -25.5t-27.5 -50.5z" />
<glyph unicode="8" horiz-adv-x="804" d="M561 518q141 -127 141 -237q0 -109 -102 -193t-248 -84q-119 0 -182 55q-61 55 -61 127q0 45 25.5 92.5t80.5 94.5q23 16 71 46t124 70q-88 88 -88 185q0 94 81 164q78 70 203 69q86 0 141.5 -43t55.5 -102q0 -57 -49 -113q-35 -37 -82.5 -69.5t-110.5 -61.5zM524 557 q121 74 152 113q35 45 35 82q0 45 -36 75.5t-91 30.5q-63 0 -108.5 -40t-45.5 -97q0 -76 94 -164zM446 457q-135 -84 -180 -144q-43 -61 -43 -125q0 -59 46 -101t118 -42q37 -4 74 12.5t66.5 44t46 61.5t14.5 68q0 45 -27 91q-29 55 -115 135z" />
<glyph unicode="9" horiz-adv-x="743" d="M104 0l11 39q186 12 293.5 95t166.5 265q-86 -68 -172 -67q-88 0 -140 60.5t-52 170.5q0 156 92 258q80 92 203 92q104 0 170.5 -77.5t66.5 -219.5q0 -166 -86 -315q-84 -143 -229 -227q-150 -76 -324 -74zM590 459q10 55 15 103t5 87q0 121 -35.5 172t-91.5 51 q-57 0 -94 -55q-45 -72 -45 -215q0 -117 31 -164t78 -47q59 0 137 68z" />
<glyph unicode=":" horiz-adv-x="458" d="M358 858q39 0 66 -28.5t27 -73.5q0 -66 -32 -103t-77 -37q-41 0 -66.5 28t-25.5 71q0 61 37 108q28 35 71 35zM215 242q39 0 65.5 -29t26.5 -74q0 -66 -30.5 -100.5t-77.5 -34.5q-39 0 -66 25.5t-27 68.5q0 61 37 109q29 35 72 35z" />
<glyph unicode=";" horiz-adv-x="464" d="M367 831q37 0 64.5 -28.5t27.5 -73.5q0 -66 -32 -102.5t-79 -36.5q-39 0 -65.5 27.5t-26.5 70.5q0 63 39 109q29 34 72 34zM6 -305l-18 63q92 72 139 140q33 45 33 73q0 29 -25 70q-23 51 -22 76q0 37 26.5 65.5t63.5 28.5q41 0 70.5 -34t29.5 -81q0 -53 -29.5 -119.5 t-91.5 -132.5q-43 -47 -87 -83.5t-89 -65.5z" />
<glyph unicode="&#x3c;" horiz-adv-x="833" d="M825 164v-94l-716 354v84l716 354v-92l-602 -305z" />
<glyph unicode="=" horiz-adv-x="851" d="M846 664v-105h-740v105h740zM846 348v-104h-740v104h740z" />
<glyph unicode="&#x3e;" horiz-adv-x="831" d="M104 750v94l723 -355l-4 -79l-714 -359v92l600 310q-152 74 -302.5 148.5t-302.5 148.5z" />
<glyph unicode="?" horiz-adv-x="614" d="M229 266h-49q16 154 35 187q14 27 68 47q150 45 206 102q53 51 54 121q0 53 -30 84t-73 31q-33 0 -90 -41q-14 -8 -20 -13.5t-11 -5.5q-12 -4 -20 -4q-18 0 -32.5 14.5t-14.5 30.5q0 33 39 60.5t98 27.5q92 0 154 -65q63 -63 63 -164q0 -104 -71 -178q-39 -45 -170 -97 q-90 -29 -109 -51q-6 -8 -14.5 -28.5t-12.5 -57.5zM190 182q29 0 50.5 -21.5t21.5 -54.5q0 -47 -25.5 -72.5t-60.5 -25.5q-29 0 -49.5 18.5t-20.5 49.5q0 47 29 80q18 26 55 26z" />
<glyph unicode="@" horiz-adv-x="1056" d="M778 760l45 10q-33 -109 -62.5 -221.5t-49.5 -204.5q-2 -10 -3 -20.5t-1 -16.5q0 -31 26 -31q31 0 78 37q66 53 102.5 127t36.5 150q0 113 -80 190q-74 72 -200 72q-119 0 -220.5 -60.5t-173.5 -189.5q-35 -66 -53 -129t-18 -129q0 -88 45 -164q31 -59 98.5 -96 t149.5 -37q176 0 366 148l27 -33q-195 -162 -428 -162q-170 0 -263.5 86t-93.5 236q0 152 80 286q88 139 220 215q139 82 282 82q76 2 143.5 -23.5t117.5 -65.5t79 -91t27 -100q0 -106 -76 -213q-80 -109 -201 -168q-96 -45 -141 -45q-37 0 -37 37q0 23 31 106 q-131 -143 -232 -143q-33 0 -56.5 32.5t-23.5 85.5q0 47 16.5 96.5t47.5 106.5q66 104 152 164q88 53 186 53h18q16 0 27 -2zM698 664q-16 4 -29.5 6t-23.5 2q-53 0 -106 -33q-51 -39 -86 -115q-16 -41 -26.5 -81t-10.5 -81q0 -59 34.5 -72.5t79.5 9.5q35 23 64 58.5 t39 64.5l26 98z" />
<glyph unicode="&#xad;" d="M137 451h463l-25 -101h-464z" />
<glyph unicode="&#xb2;" horiz-adv-x="2222" d="M2220 909v-78v-40q0 -23 2 -46q0 -82 -4 -160.5t-16 -144.5q-18 -117 -168 -250q-160 -152 -316 -151q-141 0 -248 98q-96 92 -104 182q-12 -125 -154 -227q-137 -94 -348 -94q-66 0 -130 3t-130 11q-23 2 -49.5 6.5t-60.5 8.5q-8 10 -9 30q0 29 16.5 56.5t51.5 48.5 q10 -6 29.5 -8t42.5 -2q88 0 190 36q100 37 113 74q12 39 12 55q0 41 -34 60.5t-85 19.5q-37 0 -61.5 -5t-59.5 -17l-106 -37q-4 -2 -5 -3l-1 -1q-27 -10 -37 -10q-29 0 -29 30q0 35 17.5 47.5t46.5 18.5q45 8 79.5 15t57.5 18q141 61 141 174q-2 6 -2 22q-8 63 -67.5 86 t-163.5 23q-141 0 -295 -117q-164 -129 -164 -291q0 -88 39 -194q6 -16 16.5 -36t22.5 -46q16 -12 16 -13q14 -20 15 -28q0 -10 -14.5 -21.5t-33.5 -11.5q-25 0 -55 20l-12 13q-10 27 -17.5 46t-11.5 36q-31 117 -31 225q0 244 211 416q182 150 375 149q158 0 242 -61 q59 -41 78 -127q6 -23 6 -41q0 -74 -74 -141q-10 -10 -34.5 -26.5t-63.5 -43.5q16 2 27.5 3t19.5 1q78 0 132 -35t54 -100q0 -90 -104 -154q-104 -66 -217 -65q25 -2 50.5 -3t49.5 -1q59 0 110.5 5t96.5 19q127 37 201 117q29 41 48 91t25 110v145t3.5 105.5t10.5 85 t21 85.5q23 16 53.5 21.5t55.5 5.5q29 0 35 -2q-18 -86 -29.5 -170t-11.5 -162q0 -217 86 -323q78 -100 206 -101q23 0 63 4.5t112 53.5q82 53 106 127q16 49 23.5 122.5t7.5 167.5v121q0 43 1 84t11 66q35 33 70 33q14 0 30.5 -5.5t26.5 -7.5z" />
<glyph unicode="&#xb4;" horiz-adv-x="2160" d="M2167 477q0 -141 -98.5 -282.5t-229.5 -190.5q-18 -6 -29 -6q-29 0 -53 25q-6 0 -9 4t-3 6t49 26q121 35 191 164q59 109 59 209q0 115 -57 197q-47 66 -113 92q-27 10 -66 18.5t-80.5 12.5t-82.5 2t-70 -13q63 -45 100 -112q45 -82 45 -187q0 -190 -118 -315 q-121 -127 -269 -127q-141 0 -230 73.5t-108 190.5q-2 6 -2 43q0 109 64 215q66 109 160 180q-4 2 -35 3q-66 0 -129.5 -15.5t-104.5 -36.5q-53 -29 -98 -83t-57 -101q0 -72 -2.5 -132.5t-4.5 -119.5v-45q0 -8 3.5 -37t7.5 -78q-57 -45 -90 -45q-14 0 -33 6q0 78 -2 156 l-4 156q0 78 6 149q0 123 -61.5 193.5t-147.5 70.5q-104 0 -179 -81.5t-93 -210.5q-2 -16 -3.5 -33t-1.5 -45q0 -94 24 -175t89 -132q10 -8 18 -11q18 -16 19 -28q0 -8 -17.5 -16.5t-35.5 -8.5q-16 0 -25.5 4t-19.5 10q-74 86 -105 186.5t-31 241.5q0 172 86 312 q53 86 123 120.5t160 34.5q115 0 197 -131q37 -59 55 -116.5t18 -122.5q47 98 138 176q123 106 280 129q35 8 96 8q111 0 191 -33q45 25 123 45.5t170 20.5q74 0 145 -19q137 -37 209 -140.5t72 -250.5zM1636 403q0 119 -92 203q-88 82 -223 82q-82 -63 -135 -164 q-51 -100 -51 -184q0 -37 8 -51q35 -86 102 -127q59 -35 137 -35q10 0 22.5 1t29.5 3q92 10 147 79.5t55 192.5z" />
<glyph unicode="&#xbe;" horiz-adv-x="1118" d="M1122 504l-8 -502l-43 4q35 -57 35 -145q-2 -6 -2 -21q0 -98 -62.5 -163.5t-160.5 -65.5q-94 0 -152 94q-18 25 -35 135q-29 166 -116 166q31 -53 30 -135q0 -59 -14 -96q-10 -37 -34.5 -67t-57.5 -51.5t-72 -33.5t-76 -12q-66 0 -102.5 49t-36.5 115q0 49 29 116 q8 14 19 32t26 38q33 39 49 39h-37l-10 10q-37 51 31 113q72 27 152.5 68.5t172.5 99.5q254 156 273 272q2 4 2 27q0 82 -86 125q-82 45 -191 45q-172 0 -303 -107q-123 -96 -160 -223q-12 -47 -12 -86q0 -53 23.5 -107.5t68.5 -115.5q-4 -27 -16.5 -39t-26.5 -12 q-20 0 -26 24q-29 4 -64 144q-23 100 -23 161q0 23 1.5 51.5t15.5 69.5q63 199 227 303q143 92 332 92q45 0 88 -6q127 -16 180 -108q47 -78 47 -213q0 -145 -73 -246q-92 -127 -314 -209l193 -4l203 4l2 320q14 35 34.5 51t38.5 16q14 0 29 -8l3 -2zM1034 -133q0 43 -7 83 t-21 62h-269q10 -16 16.5 -47t8.5 -45q14 -66 39 -100q33 -49 84 -56q55 -6 102 21t47 82zM543 -213q2 43 -14.5 70.5t-39 43t-44 19.5t-29.5 2q-43 0 -79 -22.5t-50 -65.5q0 -37 43 -67q33 -25 73 -31q33 -6 74 11t66 40z" />
<glyph unicode="&#xbf;" horiz-adv-x="1798" d="M1792 860q-10 -57 -17.5 -137t-9.5 -180q-2 -98 -3 -157.5t-5 -82.5q-14 -29 -59 -80q-6 -6 -15.5 -16t-23.5 -25l-4 -338q-31 -45 -92 -112q-74 -74 -111 -90q-31 0 -59.5 1t-57.5 3q-195 12 -223 12h-117h-45t-37 2q-160 4 -238.5 7t-82.5 3l35 94q104 20 217 62 q23 10 57.5 23.5t81.5 29.5q72 31 129 60.5t125 70.5q-20 6 -34.5 10.5t-24.5 8.5q-59 20 -78 39q-176 -72 -416 -72q-39 0 -78 2t-78 8q-86 10 -155.5 35t-126.5 63q-137 98 -137 242q0 49 18 109q14 45 46 80.5t76 61.5t95 40t107 14q43 0 98 -16q63 94 186 170 q82 47 163 72.5t165 25.5q27 0 45 -1t29 -3q12 -2 30.5 -5t40.5 -9q113 -27 176 -119q55 -84 56 -199q0 -86 -31 -161q-23 -59 -69 -118t-99 -106q84 -53 191 -53q76 0 127 42t65 95v299q2 78 9 152t22 139q23 12 26 14q27 12 54 13q24 0 57 -23zM1337 436q2 8 2 23v16 q0 84 -46 151.5t-124 104.5q-51 27 -153 27q-61 0 -120.5 -10.5t-119.5 -28.5q-115 -41 -149 -111q66 -29 134 -79t140 -115q35 -33 65.5 -56.5t57.5 -44.5q14 -10 49 -32.5t92 -63.5q41 31 66.5 52.5t36.5 31.5q59 63 69 135zM991 152q-80 53 -170 131l-116 98 q-39 33 -77 62.5t-77 39.5v-39q0 -23 20 -61q-16 -31 -36 -31q-14 0 -35 19q-6 49 -6 69q0 25 6 60q-4 10 -41 17t-88 7q-68 0 -119 -17.5t-62 -45.5q-8 -23 -8 -43q0 -78 88 -152q45 -37 95.5 -63.5t107.5 -40.5q80 -23 148.5 -31t134.5 -8q37 0 70.5 3t64.5 7 q35 8 60.5 13.5t39.5 5.5zM1538 63q-49 -41 -105.5 -57t-109.5 -16q-35 -23 -60.5 -40.5t-41.5 -27.5q-18 -12 -44 -26.5t-61 -30.5q-23 -10 -46 -20.5t-50 -20.5q-90 -35 -100 -37h51h22t19 -2q86 -4 133 -7t57 -3h115h90q72 2 127 22z" />
<glyph unicode="&#xd8;" horiz-adv-x="3223" d="M3217 487q0 -125 -139 -276q-70 -74 -139.5 -127t-138.5 -72q-29 0 -157 10.5t-314 14.5q-92 4 -167 9t-128 5q-186 0 -207 -6q-104 -43 -191 -43q-154 0 -262 133q-8 10 -46 74.5t-105 185.5q-80 139 -158 140q-51 0 -89 -47.5t-63 -100.5q-37 -80 -36 -201v-32 q0 -16 2 -27.5t8 -34.5q4 -37 -23 -59q-8 -8 -15 -15.5t-18 -11.5q-10 -6 -22 -6q-25 0 -42 18.5t-17 53.5l10 321q0 53 -14.5 116.5t-43.5 102.5q-84 113 -245 113q-123 0 -209 -86q-41 -41 -61.5 -109.5t-20.5 -121.5q0 -129 41 -201q31 -61 112 -109q14 -6 25.5 -20.5 t11.5 -30.5q0 -10 -6 -16q-14 -20 -47 -21q-35 0 -59 25q-70 74 -105 192.5t-35 247.5q0 193 132 313q57 53 120.5 85t132.5 32q84 0 148.5 -32.5t114.5 -88.5q125 -143 104 -290q27 43 45.5 71.5t32.5 40.5q70 74 166 74q111 0 205 -143q39 -68 77.5 -135.5t77.5 -135.5 q96 -145 221 -145q18 0 31.5 1t24.5 3q100 18 149 104q43 74 43 179l-20 405q0 45 36.5 69.5t82.5 24.5q20 0 24 -2q0 -35 1 -91t3 -132t4 -147.5t4 -139.5q0 -41 -24 -86q-14 -27 -43 -63.5t-72 -83.5q10 0 43 2t90 4q27 2 47 2h39h43l125 -8h47q23 0 43 -2q-98 76 -98 190 q0 129 127 252q121 121 313 162q51 14 123 14q152 0 252 -82q98 -84 98 -209zM3080 389q0 121 -98 205q-92 86 -232 86q-27 0 -53 -3t-55 -13q-90 -29 -145 -105q-57 -72 -58 -147q0 -51 33 -84q66 -55 133 -56q6 0 16.5 1t24.5 3v-18l-174 -98l422 -6q92 43 139 98t47 137z " />
<glyph unicode="&#xe1;" horiz-adv-x="2201" d="M2081 831q59 -47 90 -115.5t31 -154.5q0 -143 -86 -303q-86 -154 -213 -227q-18 -8 -37 -16.5t-33 -8.5q-20 0 -32.5 11.5t-12.5 23.5q0 10 12 27q123 8 211 141q84 125 84 276q0 80 -29.5 143.5t-95.5 96.5q-76 41 -178 41q-66 0 -130.5 -17.5t-123.5 -50t-111.5 -80 t-91.5 -108.5q-2 -18 -4 -48t-6 -71q-6 -78 -6 -121v-106q0 -33 3 -55.5t13 -57.5q-23 -23 -47 -33t-45 -10q-53 0 -53 41q-2 6 -2 14v19v35q0 109 2 213t4 172q0 55 -11.5 100t-33.5 82q-53 78 -145 78q-25 0 -29 -2q-145 -18 -203 -119q-53 -100 -53 -338q0 -125 -96 -207 q-90 -74 -201 -73q-29 0 -35 2q-154 23 -223 141q-57 102 -58 254q0 86 14.5 159.5t33.5 118.5q4 6 13 21.5t18.5 30t19.5 25.5t16 11q8 0 15.5 3.5t13.5 2.5t9 -9.5t5 -30.5q-14 -20 -28.5 -53t-26.5 -72t-19.5 -80t-7.5 -76q0 -63 11.5 -116.5t37.5 -94.5 q59 -100 172 -108q176 0 177 178q0 170 26 227q74 145 217 227q123 68 248 68q90 0 139.5 -34t77.5 -85q8 -14 15.5 -29.5t15.5 -37.5q98 117 231 182t271 65q76 0 138.5 -18.5t121.5 -63.5z" />
<glyph unicode="&#xd02;" horiz-adv-x="825" d="M815 362q-41 -158 -172 -264q-127 -96 -254 -96q-109 0 -190 74q-94 86 -95 211q0 51 24 119.5t71 142.5l57 16l-43 -149q27 39 59.5 73.5t73.5 67.5q121 90 232 90q90 0 167 -72q76 -70 76 -165q0 -23 -6 -48zM694 291q2 12 3 21.5t1 13.5q0 70 -61 123q-66 53 -133 53 q-84 0 -162 -41q-92 -51 -109 -146q-10 -55 60 -114q68 -61 147 -62q94 0 160 35q76 39 94 117z" />
<glyph unicode="&#xd03;" horiz-adv-x="569" d="M510 864q47 -35 47 -108q0 -96 -74 -183q-29 -35 -70.5 -50t-80.5 -15q-31 0 -37 2q-70 10 -117 56t-47 120q0 47 23 98q2 4 11 20.5t30 47.5q14 6 24 6q14 0 23 -8q-27 -29 -40.5 -53.5t-23.5 -46.5q53 59 88 88q76 61 146 61q51 0 98 -35zM487 360q49 -37 50 -110 q0 -92 -74 -178q-31 -37 -71 -52.5t-81 -15.5q-33 0 -39 2q-70 10 -116.5 56.5t-46.5 119.5q0 45 24 99q8 14 17.5 30.5t23.5 36.5q14 6 25 6q12 0 20 -8q-27 -31 -39 -54.5t-22 -43.5q63 70 86 86q76 61 147 61q49 0 96 -35zM487 664q6 12 7 24q0 35 -37 59.5t-84 30.5 q-53 4 -106.5 -20.5t-69.5 -61.5q49 -61 133 -75q6 -2 39 -3q43 0 76.5 11.5t41.5 34.5zM467 162q4 8 4 12v10q0 37 -38 63.5t-77 26.5q-63 0 -114.5 -21.5t-65.5 -59.5q14 -23 39 -39.5t50.5 -25.5t49 -12t37.5 -1q43 0 74 11t41 36z" />
<glyph unicode="&#xd05;" horiz-adv-x="2385" d="M2378 477q0 -82 -43 -164t-115 -151q-57 -86 -131 -125q-23 -10 -59.5 -19.5t-90.5 -19.5q-12 -2 -23 -3t-32 -1q-121 0 -211 51q-106 63 -106 160q0 100 123 221q133 131 280 131q35 0 69 -8t68 -29q25 -23 25 -61q0 -37 -11.5 -68t-21.5 -37q-14 39 -61 60.5t-107 21.5 q-53 0 -98 -11t-82 -36q-90 -55 -90 -143q0 -57 86 -96q74 -31 160 -31q25 0 28 2q205 18 279 133q43 63 43 199q0 115 -119 184q-102 63 -229 63q-8 2 -19 2h-20h-29q-211 0 -373 -118q-137 -100 -137 -201q-2 -10 -3 -20.5t-1 -16.5q-4 -47 -6 -87t-2 -75q0 -47 1 -78.5 t11 -50.5q-25 -29 -44 -43t-54 -14q-20 0 -27 2q-6 29 -8 67.5t-2 77.5q0 35 3 74t7 80q2 14 4 30.5t7 37.5q0 84 -43 151q-53 78 -158 100q0 -37 -20.5 -69.5t-51.5 -54.5q23 -2 39 -4.5t27 -6.5q104 -31 104 -133q0 -59 -21.5 -122.5t-62.5 -116.5q-90 -109 -221 -109 q-158 0 -268 92q-55 47 -82 108.5t-27 127.5q0 27 2 32q16 135 156 250q137 123 260 123q-10 16 -52 26.5t-102 10.5h-24q-8 0 -17.5 -2t-21.5 -4t-31 -4q-291 -59 -403 -322q-25 -53 -25 -114q0 -37 8 -75t26.5 -72t48.5 -62.5t73 -44.5l10 -11q12 -18 7 -36.5t-36 -18.5 q-20 0 -28 8q-96 59 -136.5 154.5t-40.5 228.5q0 111 82 228q82 119 207 192q156 90 326 90q102 0 180 -38t119 -117q123 -31 199 -103q31 -31 54 -64.5t38 -74.5q23 51 57.5 94t85.5 86q174 135 424 156q8 2 16 2h17h28q96 0 175 -24.5t139 -78.5q125 -106 125 -268z M948 633q-12 16 -78 16q-63 0 -125.5 -16.5t-115.5 -57.5q-43 -37 -66 -79q-31 -49 -31 -107q0 -23 3 -27q10 -47 36.5 -93t71.5 -79q111 -80 270 -79q53 0 83 34.5t30 81.5q0 29 -8 56.5t-25 44.5q-39 39 -104 39q-10 0 -26.5 -3.5t-39.5 -7.5l-127 -32q-16 2 -28 16 q-12 12 -13 47q0 20 15 45l6 6t10 8l47 9q53 8 144 77q91 72 71 101z" />
<glyph unicode="&#xd06;" horiz-adv-x="2742" d="M2734 387q0 -16 2 -36.5t2 -31.5q0 -98 -34.5 -181t-108.5 -158q-66 -70 -151 -128.5t-191 -103.5q-90 -37 -180.5 -54.5t-163.5 -17.5q-18 4 -28.5 6.5t-14.5 4.5q-25 14 -25 34q0 47 51 43q37 -6 80 -6q63 0 134 12.5t139 36.5q76 29 136 83.5t107 127.5q84 135 84 297 q0 82 -57 142q-25 29 -54.5 45t-66.5 28q6 -23 10 -40t4 -27q2 -6 2 -33q0 -76 -34.5 -141.5t-100.5 -126.5q-45 -61 -133 -115q-41 -18 -80 -31.5t-73 -17.5h-39q-55 0 -108.5 16.5t-104.5 53.5q-53 45 -79 90t-26 100q0 133 146 260q147 129 282 141q-35 16 -78 27.5 t-79 11.5q-10 4 -19 4h-18h-29q-211 0 -360 -118q-129 -96 -129 -197q-2 -18 -3.5 -35.5t-3.5 -32.5q-4 -49 -6 -83.5t-2 -57.5q0 -43 2 -68.5t13 -43.5l-8.5 -8.5t-18.5 -20.5q-25 -29 -61 -29h-21q-10 2 -17.5 3t-11.5 1q0 16 -4 51t-4 76q0 35 2 73t6 79q2 14 4.5 29.5 t6.5 37.5q0 43 -10.5 81t-32.5 69q-47 86 -156 104q0 -37 -20.5 -70.5t-51.5 -54.5q23 -4 39.5 -6t26.5 -4q98 -31 98 -133q0 -131 -84 -229q-90 -115 -215 -115q-162 0 -266 92q-106 98 -107 225q0 29 2 33q16 137 154 254q135 127 260 127q-10 16 -53 25.5t-100 9.5 q-31 0 -45.5 -2t-47.5 -6q-139 -29 -240.5 -113t-152.5 -211q-14 -27 -19 -58.5t-5 -66.5q0 -74 31.5 -134t109.5 -95l8 -10q12 -12 12 -25q0 -6 -9 -17.5t-25 -11.5q-12 0 -16.5 3.5t-6.5 5.5q-51 29 -84 62.5t-52.5 77.5t-26.5 99t-7 127q0 113 74 230q43 63 93 109 t110 81q154 96 327 96q102 0 177 -36.5t116 -118.5q59 -16 109.5 -41t91.5 -64q72 -70 90 -151q45 86 96 147.5t115 99.5q76 47 160 72t186 25q141 0 248.5 -36t179.5 -114q154 0 278 -78q134 -82 154 -225zM954 629q-6 6 -22.5 11t-42.5 5q-59 0 -127 -19.5t-121 -60.5 q-20 -16 -35.5 -36.5t-27.5 -41.5q-35 -53 -35 -104v-16t2 -13q16 -90 102 -159q106 -70 268 -70q53 0 84 31.5t31 81.5q0 53 -33.5 86.5t-99.5 33.5q-16 0 -63 -10l-129 -31q-12 0 -29 13q-16 14 -17 51q0 25 19 43q4 8 18 16l45 6q27 6 63 26t83 54q87 72 67 103z M2265 442q-8 45 -30.5 79t-55.5 63q-27 14 -70 14q-61 0 -113 -19.5t-102 -60.5q-111 -92 -110 -231q10 -72 86 -129q41 -27 78 -44.5t71 -17.5q18 0 21 2q68 16 114 42t76 61q43 61 43 149q0 51 -8 92z" />
<glyph unicode="&#xd07;" horiz-adv-x="1847" d="M1845 651q0 -152 -151 -315q-68 -72 -151 -133.5t-181 -110.5q-193 -96 -330 -96h-389q-127 0 -219 -43q-94 -45 -94 -96t102 -62q100 -12 395 -12h869q29 0 45 2t41 12q10 -16 10 -53q0 -10 -4 -10q-2 0 -6 -17q-10 -25 -45 -43q-4 -2 -8.5 -3t-8.5 -5h-1030 q-176 0 -270 25q-84 23 -125 49.5t-41 85.5q0 41 14 76q8 31 54 75q23 18 44 33t44 25q-117 0 -209 110q-94 102 -95 240q0 172 178.5 342t381.5 188q8 2 16 3h16h27q137 0 238 -54q113 -66 151 -190q70 104 161 164.5t195 72.5q18 2 34 3t26 1q137 0 217 -61 q98 -72 98 -203zM1706 563q0 104 -64.5 156.5t-168.5 52.5q-16 0 -40 -3t-53 -7q-104 -23 -176 -94q-72 -68 -71 -115q-4 -23 -6.5 -42t-4.5 -34q-12 -98 -12 -149q0 -59 12 -86q-18 -16 -28.5 -25.5t-12.5 -11.5q-23 -20 -47 -24.5t-47 -0.5q-8 55 -9 81t-1 38q0 76 12 156 q0 12 3 29.5t7 39.5q0 129 -110 203q-102 66 -236 66q-35 0 -41 -2q-193 -16 -305 -148q-45 -49 -65.5 -103.5t-20.5 -109.5q0 -39 15 -57q20 41 55 82t82 82q86 72 186 104q41 14 100 14q111 0 187 -57q80 -53 80 -133q0 -86 -45 -168q-53 -96 -148 -154l154 2h211 q223 0 411 127q197 125 197 291zM809 393q-16 61 -73.5 89t-125.5 28q-33 0 -37 -2q-59 -10 -112 -33.5t-101 -58.5q-86 -66 -86 -111q37 -63 142 -108q104 -43 227 -43q49 16 102 75q68 70 68 136q0 4 -1 11t-3 17z" />
<glyph unicode="&#xd08;" horiz-adv-x="2885" d="M1821 651q0 -150 -150 -311q-135 -147 -328 -244q-190 -96 -323 -96h-385q-119 0 -217 -41q-90 -47 -90 -96t98 -60q104 -12 391 -12h856q29 0 45.5 2t40.5 12q4 -8 7 -10t3 -20q0 -16 -10 -54q-10 -27 -47 -43q-4 -2 -8 -3t-8 -5h-1014q-174 0 -268 25q-80 23 -121 50.5 t-41 86.5q0 43 14 78q10 31 53 72q45 39 84 57q-113 0 -204 108q-92 106 -93 240q0 174 177 340q88 86 182 131t192 55q8 2 17 2h16h27q137 0 231 -53q113 -63 152 -188q68 104 158 163.5t192 71.5q20 2 34.5 3t24.5 1q135 0 215 -61q97 -72 97 -201zM1683 565 q0 100 -63.5 153.5t-167.5 53.5q-16 0 -38.5 -3t-51.5 -7q-94 -20 -174 -94q-70 -68 -70 -113q-4 -23 -6 -42t-4 -34q-12 -98 -12 -147q0 -61 12 -88q-18 -16 -27.5 -24.5t-11.5 -10.5q-23 -20 -48.5 -24.5t-47.5 -0.5q-8 53 -9 79t-1 40q0 72 12 156q2 20 12 67 q0 125 -108 199q-98 66 -234 66q-35 0 -41 -3q-188 -12 -299 -145q-88 -96 -88 -211q0 -41 16 -57q20 41 54.5 82t81.5 82q84 72 184 102q37 14 98 14q106 0 185 -55q78 -51 77 -133q0 -86 -43 -166q-53 -96 -147 -156l154 2h206q215 0 407.5 127t192.5 291zM799 395 q-16 61 -72.5 89t-124.5 28q-31 0 -35 -2q-59 -10 -111.5 -33.5t-97.5 -58.5q-86 -66 -86 -109q35 -59 138 -108q106 -43 225 -43q49 16 102 75q66 70 66 134q0 4 -1 11t-3 17zM2857 504q-16 -41 -31.5 -78t-38.5 -66q-27 -35 -55.5 -64.5t-62.5 -53.5q-35 -45 -81 -81 t-100 -69q-84 -55 -137 -63q-8 -2 -16 -2h-19h-24q-98 0 -170 32q-80 39 -94 107q-2 23 8 47q18 27 65 45q16 -53 84 -94t142 -41q20 0 24 2q74 8 140.5 38t127.5 81q137 119 160 274q2 10 2 29v22q0 104 -51 168q-59 72 -156 72q-86 0 -146.5 -42t-76.5 -120v-49 q0 -18 6 -70q0 -18 8.5 -23t14.5 -9q-6 -43 -47 -43q-37 0 -49 34l-11 191q-12 53 -52 86t-99 33q-74 0 -122 -50.5t-48 -125.5q0 -35 15 -57.5t50 -49.5q0 -20 -2 -22q-10 -23 -37 -23q-29 16 -46 59t-17 95q-2 6 -2 22q0 106 65 189q68 82 162 81q94 0 137 -35.5 t66 -119.5q35 78 107.5 119t158.5 41q47 0 94 -19q86 -31 133.5 -102.5t47.5 -163.5q0 -59 -27 -131z" />
<glyph unicode="&#xd09;" horiz-adv-x="1107" d="M1100 518q0 -203 -240 -371q-213 -152 -401 -151h-84q-78 0 -126 -31t-48 -74q0 -61 55 -75q66 -16 313 -17h406q47 0 90 13q10 -16 10 -35q0 -6 -10 -47q-8 -25 -49 -41q-4 -2 -8 -3t-9 -5h-710q-86 0 -137.5 33.5t-51.5 105.5q0 25 6.5 52.5t20.5 55.5q27 55 139.5 123 t194.5 68h180q51 14 89 28.5t65 34.5q158 111 157 346q0 111 -80 189q-102 94 -284 94q-180 0 -287 -125q-80 -92 -80 -174q0 -113 55.5 -172t174.5 -76q6 -2 36 -2q68 0 125.5 30t79.5 85q6 10 8 21.5t2 21.5q0 59 -51 99t-116 52q-20 2 -33 3t-21 1q-72 0 -116 -38 q-37 -31 -37 -64q6 -18 6 -27q0 -8 -15 -14q-27 -6 -26 39q-10 70 65 145q43 41 94.5 63.5t114.5 22.5q45 0 88 -15t76 -44t52.5 -67.5t19.5 -88.5q-2 -6 -2 -18v-8q-10 -109 -139 -215q-133 -102 -259 -103q-129 0 -208.5 74t-79.5 209q0 168 172 319q188 164 422 164 q184 0 288.5 -93t104.5 -253v-28q0 -11 -2 -17z" />
<glyph unicode="&#xd0a;" horiz-adv-x="2084" d="M1049 518q0 -203 -228 -375q-203 -152 -381 -151h-80q-72 0 -117.5 -32t-45.5 -75q0 -61 55 -75q59 -16 295 -17h383q43 0 84 12q8 -20 8 -36q0 -4 -2 -16.5t-6 -31.5q-8 -23 -45 -40q-4 -2 -8.5 -3.5t-8.5 -5.5h-671q-80 0 -129.5 34t-49.5 108q0 53 25 108 q31 59 133 125q104 68 182 68h170q47 14 84 28.5t64 34.5q150 115 149 350q0 113 -78 191q-94 94 -266 94q-170 0 -274 -125q-74 -92 -74 -176q0 -115 52.5 -174t162.5 -76q6 -2 37 -2q66 0 119 29.5t76 85.5q8 18 8 45q0 59 -47 99t-113 52q-16 2 -28.5 3t-18.5 1 q-72 0 -113 -38q-35 -29 -35 -64q6 -18 7 -27q0 -8 -15 -14q-25 -6 -24 39q-10 72 61 145q82 88 199 89q43 0 84 -15.5t71.5 -44.5t49 -68.5t18.5 -89.5q-2 -6 -2 -18v-8q-8 -109 -133 -217q-123 -104 -244 -105q-123 0 -197.5 75t-74.5 212q0 168 162 322q174 166 397 165 q176 0 275.5 -94t99.5 -256v-28q0 -11 -2 -17zM2056 440q-33 -86 -69 -141q-27 -35 -52.5 -53.5t-58.5 -42.5q-76 -84 -174 -142q-86 -55 -131 -63q-20 -4 -33 -4h-27q-94 0 -161 37q-78 33 -90 98q-2 12 0 23.5t6 21.5q16 29 63 47q12 -51 80 -94q70 -41 137 -41q20 0 25 2 q139 18 254 119q70 59 106.5 114.5t46.5 133.5q2 10 2 26v25q0 102 -47 166q-55 72 -151 71q-82 0 -138.5 -42t-72.5 -117v-52q0 -10 1 -26.5t3 -40.5q0 -18 8 -23.5t14 -9.5q-6 -43 -45 -43q-37 0 -49 35l-8 190q-12 53 -51 85t-96 32q-70 0 -115 -50t-45 -126 q0 -35 13 -57.5t48 -46.5q0 -20 -2 -23q-10 -23 -35 -22q-29 16 -45 58t-16 95q-2 6 -2 23q0 109 63 186q63 80 154 80q92 0 133 -36t64 -118q33 78 102.5 118t149.5 40q49 0 94 -16q82 -33 127 -102.5t45 -162.5q0 -61 -25 -131z" />
<glyph unicode="&#xd0b;" horiz-adv-x="1290" d="M1286 772q0 -59 -72 -131q-90 -84 -208 -137q29 -29 44 -43.5t17 -18.5q35 -47 35 -102q0 -80 -129 -190q-170 -145 -408 -146q-172 0 -289 74q-127 84 -126 217q0 45 24 82q18 29 80 82q-74 35 -109 65q-39 49 -39 107q0 78 111 174q131 109 272 108q76 0 150 -39 q51 -33 51 -75q0 -61 -72 -137q-27 -25 -63.5 -52.5t-85.5 -56.5l143 -10h115q35 4 53 6q-8 25 -8 57q0 106 109 189q111 86 223 86q86 0 134 -25t48 -84zM563 715q0 29 -43 51t-104 22q-53 0 -109.5 -16t-89.5 -47q-4 -47 40 -80t130 -33q37 0 98 31q78 37 78 72zM1143 692 q0 37 -72 60q-6 2 -16 2q-8 0 -21 4q-78 0 -110.5 -8.5t-32.5 -49.5q0 -68 55 -125q43 10 74 18.5t51 16.5q72 31 72 82zM987 262q0 39 -51 96q-49 57 -92 74q-41 -8 -97.5 -14t-115.5 -6q-41 0 -78 1t-65.5 3t-72.5 6t-106 14q-4 -8 -9 -15t-9 -18q-16 -37 -17 -69 q0 -123 156 -172q53 -16 122 -24.5t155 -8.5q131 0 215 51q65 41 65 82z" />
<glyph unicode="&#xd0c;" horiz-adv-x="1886" d="M1712 496q6 -4 6 -7v-10q-2 4 -3 8.5t-3 8.5zM299 209v6q0 49 30.5 85t73.5 36t74 -36t31 -85q0 -51 -31 -88q-27 -31 -67 -35q-43 16 -82 68q-19 24 -29 49zM1708 498v-9q0 -92 -24.5 -169.5t-71.5 -149.5q-59 -66 -238 -98q-113 33 -172 96q-121 109 -104 211 q31 113 162 182q68 14 133 15.5t131 -13.5q76 -23 122 -39t62 -26zM1708 510q-47 102 -158 123q-244 47 -383 -19q-139 -63 -174 -190q-29 -123 47 -225q8 -12 18.5 -25.5t18.5 -28.5q49 -70 112.5 -99.5t125.5 -33.5q8 -2 22 -2q14 -2 28.5 -3t31.5 -1h30q16 0 27 2 q57 6 102.5 29.5t77 51.5t50 55.5t24.5 41.5q45 92 74.5 181.5t29.5 181.5q0 129 -112 248q-115 121 -309 121q-180 0 -312 -80q-117 -74 -194 -207q0 106 -101 192q-80 68 -209 68q-152 0 -262 -156q-109 -158 -108 -338q0 -178 57 -284q4 -10 10.5 -17.5t10.5 -15.5 q16 -29 47 -53h2q8 -6 15 -11.5t15 -9.5h9q18 -6 39 -6q33 0 63.5 16.5t52 45t34.5 66.5t13 79q0 43 -13 82t-35.5 66.5t-52.5 44t-62 16.5q-41 0 -80 -27q-37 -27 -58 -67v28q0 152 78 260q76 111 203 111q129 0 178 -92q39 -70 39 -252q-2 -66 -3 -150t-1 -153 q0 -35 17.5 -52.5t43.5 -11.5q33 6 62 36t29 56q-8 8 -11.5 52.5t-3.5 109.5q0 53 1 97.5t3 78.5q0 98 90 189q109 104 293 123q4 2 39 2q158 0 273 -99q96 -47 106 -145z" />
<glyph unicode="&#xd0e;" horiz-adv-x="2447" d="M2445 360q0 -236 -139 -423q-47 -63 -103.5 -114.5t-121.5 -88.5q-10 -8 -19.5 -14.5t-13.5 -10.5q-37 -23 -66 -22q-23 0 -30 20q-2 12 37 35q145 74 225 266q68 162 67 365q0 178 -133 303q-137 127 -307 127q0 -63 12 -207q37 -373 37 -508q0 -152 -159 -289 q-150 -131 -283 -131q-119 0 -227 103q-127 111 -154 282q-47 6 -107.5 25.5t-140.5 54.5q-63 29 -129.5 56.5t-134.5 56.5q-135 59 -186 59q-82 0 -144 -51q-57 -51 -57 -113q0 -16 4 -32q10 -39 -25 -43q-25 -2 -32 26q-2 2 -2 10q0 12 -2 19q0 139 98 237q102 98 225 99 q78 0 252 -78q94 -41 185.5 -83t187.5 -83q31 168 39 199q25 70 70.5 134t109.5 124q119 106 283 168q55 23 117.5 37t127.5 24q35 4 62.5 7t46.5 3q266 0 407 -174q123 -148 123 -375zM1741 319q-4 25 -8 83.5t-13 152.5q-12 190 -12 250q-92 0 -197 -62 q-121 -68 -188 -172q-59 -84 -86 -202q-18 -80 -18 -162q0 -31 2 -37q27 -8 61.5 -15.5t81.5 -11.5q86 -6 145 -6q88 0 154 45q78 51 78 137zM1749 182q-33 -82 -121 -139q-88 -53 -178 -53q-55 0 -105.5 5t-97.5 15q74 -133 164 -186q66 -41 139 -41q96 0 156 139 q23 55 34 110.5t11 110.5q0 35 -2 39z" />
<glyph unicode="&#xd0f;" horiz-adv-x="2400" d="M2232 43q0 78 -53 135q-59 66 -180 66q-18 0 -40 -3t-50 -8q-25 0 -25 33q0 25 25 33q106 37 156.5 100.5t50.5 141.5q0 115 -91 207q-88 90 -215 90q-33 0 -38 -2q0 -10 30 -418q6 -111 10.5 -189.5t4.5 -132.5q0 -143 -150 -289q-143 -137 -272 -137q-115 0 -213 105 q-111 117 -138 286q-45 8 -105 28t-138 54q-63 29 -129 57.5t-131 57.5q-66 31 -113 45t-72 14q-43 0 -79.5 -14t-63.5 -37.5t-42 -53.5t-15 -62q0 -14 4 -31q8 -37 -17 -43q-25 -2 -32 20q-2 2 -2 13q0 12 -3 18q0 147 97 244q94 100 219 100q82 0 250 -78q94 -43 183 -85 t183 -83q14 72 24.5 121t16.5 74q27 74 70 136t102 122q109 111 272 172t347 61h24q166 0 281 -110q100 -100 100 -236q0 -86 -43 -144.5t-137 -88.5q152 0 229 -86q76 -82 76 -195q0 -135 -96 -241q-106 -115 -270 -115h-21h-14q-6 0 -17 2q-33 0 -26 35q6 16 33 16 q12 0 24 -2t17 0q109 0 159 100q43 80 43 197zM1663 319q-4 29 -8 85.5t-12.5 152.5t-10.5 159.5t-2 96.5q-41 -4 -82 -20.5t-82 -40.5q-100 -63 -168 -162q-39 -57 -63.5 -123t-34.5 -148q-4 -29 -5 -62.5t-3 -76.5q57 -18 132 -25.5t130 -7.5q90 0 143 41q66 49 66 131z M1675 188q-41 -82 -110 -133q-78 -57 -164 -57q-59 0 -101.5 4t-82.5 16q59 -135 145 -190q63 -41 137 -41q94 0 143 133q35 90 35 221q0 41 -2 47z" />
<glyph unicode="&#xd10;" horiz-adv-x="3387" d="M3387 367q0 -238 -135 -424q-88 -127 -213 -205q-10 -8 -18 -14.5t-15 -10.5q-39 -23 -61 -22q-18 0 -29 20q-2 10 37 37q137 76 213 262q63 164 64 371q0 176 -127 301q-127 129 -293 129q0 -31 3 -83t11 -124q16 -188 24.5 -315t8.5 -195q0 -150 -152 -291 q-72 -66 -136 -94t-130 -28q-55 0 -110.5 20t-108.5 74q-121 115 -145 282q-86 14 -236 82q-61 29 -124.5 56.5t-127.5 56.5q-131 59 -178 59q-80 0 -135 -51q-55 -49 -55 -115q0 -14 4 -30q6 -41 -23 -43q-25 -2 -33 24q-2 2 -2 13q0 12 -2 18q0 137 94 238q94 98 216 98 q72 0 239 -78q90 -41 175 -83t177 -83q16 86 25.5 134t13.5 65q49 137 172 258q113 109 269 170q53 23 111.5 37t123.5 24q35 4 59.5 7.5t40.5 3.5q254 0 392 -175q116 -151 116 -376zM2716 326q-4 25 -8.5 83t-10.5 154q-8 94 -11 156.5t-3 93.5q-88 0 -186 -61 q-113 -68 -181 -172q-27 -41 -47 -93.5t-33 -111.5q-18 -80 -18 -162q0 -31 2 -37q25 -8 58.5 -15t78.5 -11q41 -4 75 -6.5t62 -2.5q82 0 148 47q74 52 74 138zM2724 188q-16 -43 -46 -77.5t-71 -63.5q-80 -55 -170 -55q-109 0 -192 20q72 -131 157 -184q57 -39 131 -39 q94 0 148 139q45 113 45 222q0 34 -2 38zM334 166q4 -2 33 -2q70 0 141 39q76 43 96 88q14 20 14 53q0 27 -9 50.5t-23.5 42t-31.5 30.5t-32 14q-29 6 -43 6q-70 0 -131 -61q-53 -63 -45 -102q-12 2 -18 6q-18 12 -19 47q0 4 1 12t3 19q47 111 132 164t176 53q63 0 96 -33 q49 -43 49 -115q0 -47 -19.5 -103.5t-48.5 -111.5q-59 -115 -151 -186.5t-201 -71.5q-92 0 -146.5 71.5t-54.5 192.5v29q2 10 3 18.5t1 12.5q23 180 207 368q209 215 439 215q98 0 187 -43t134 -129q43 -80 43 -221q0 -125 -153 -305q-127 -145 -220 -195q-18 -6 -26 -6 q-23 0 -29 21q-12 35 41 47q84 72 121 117q125 154 125 307q0 190 -211 244q-29 6 -38 7t-34 1q-164 0 -309 -101q-166 -111 -166 -270q-2 -8 -2 -23v-12q0 -78 30 -127t89 -57z" />
<glyph unicode="&#xd12;" horiz-adv-x="1290" d="M1284 307q0 -109 -113 -203q-102 -84 -210 -84q-47 0 -46 21q0 25 27 41q12 -4 23 -4q49 0 106 45q63 53 64 115q0 59 -42 88.5t-112 29.5q-41 0 -72.5 -10t-79.5 -29q-25 2 -24 27q0 23 20 39q74 14 129 61q74 61 74 148q0 111 -102 153q-68 31 -199 31q-143 0 -287 -92 q-145 -88 -186 -203q27 23 53.5 40.5t57.5 33.5q98 49 170 49q100 0 150 -48t50 -122q0 -111 -117 -258q-125 -156 -258 -174q-123 0 -188.5 77t-65.5 193q0 215 230 420q240 215 524 215q59 0 109.5 -14t97.5 -43q109 -66 109 -170q0 -68 -33 -119t-88 -88q88 0 131 -20 q98 -37 98 -146zM612 326q0 63 -57 94q-43 25 -106 24q-94 0 -166 -47q-20 -12 -54 -49q0 -205 187 -205q84 0 145 72q51 64 51 111z" />
<glyph unicode="&#xd13;" horiz-adv-x="2289" d="M1290 311q0 -109 -114 -200q-104 -86 -211 -86q-47 0 -45 20q0 25 28 41q8 -4 21 -4q49 0 106 45q63 51 64 115q0 59 -42 88.5t-112 29.5q-41 0 -72.5 -10t-78.5 -28q-27 2 -27 28q0 10 4 18.5t18 18.5q37 6 69 22.5t60 36.5q39 33 55.5 70t16.5 78q0 111 -100 156 q-35 16 -85 22t-114 6q-72 0 -144.5 -21.5t-146.5 -68.5q-145 -90 -184 -203q27 23 53.5 40.5t57.5 33.5q49 23 91 36t77 13q102 0 152 -47t50 -123q0 -53 -28.5 -119.5t-87.5 -138.5q-127 -156 -259 -174q-123 0 -189.5 77t-66.5 193q0 217 232 420q244 215 526 215 q115 0 207 -57q109 -66 109 -170q0 -70 -33 -121t-88 -86q80 0 131 -20q100 -37 100 -146zM614 328q0 61 -57 96q-43 23 -108 22q-96 0 -164 -47q-12 -6 -25.5 -18t-30.5 -29q0 -205 187 -205q82 0 147 72q51 64 51 109zM2290 535q0 -82 -51.5 -178.5t-155.5 -182.5 q-203 -170 -414 -170q-160 0 -256 90q-80 76 -80 158q4 29 70 78q10 6 27.5 17t39.5 24q0 -133 95 -191q41 -23 99 -36t136 -13q141 0 240 98q51 49 75.5 117t24.5 131q0 141 -115 223q-106 78 -264 78q-133 0 -219 -43q-66 -31 -110 -88q-23 10 -23 25q0 43 143 133 q74 43 132.5 69.5t105.5 34.5q39 6 76 6q168 0 295 -108q129 -108 129 -272z" />
<glyph unicode="&#xd14;" horiz-adv-x="2213" d="M1298 307q0 -111 -114 -203q-102 -84 -213 -84q-47 0 -45 19q0 25 26 41q12 -4 23 -4q47 0 108 45q63 57 64 117q0 59 -42 88.5t-114 29.5q-41 0 -72.5 -9t-78.5 -30q-27 2 -27 29q0 10 4 19.5t19 19.5q72 14 129 59q74 61 73 150q0 113 -102 156q-35 16 -85 23t-116 7 q-145 0 -289 -92q-147 -86 -188 -205q27 23 53.5 40.5t59.5 33.5q49 25 91 38t79 13q102 0 152 -48t50 -124q0 -109 -118 -262q-125 -156 -260 -174q-123 0 -189.5 78t-66.5 194q0 217 231 424q246 217 528 217q113 0 211 -57q109 -66 109 -172q0 -70 -33 -121t-88 -88 q88 0 131 -20q100 -37 100 -148zM621 326q0 61 -60 96q-23 12 -49.5 17t-56.5 5q-100 0 -168 -47q-12 -6 -25.5 -18t-30.5 -29q0 -207 189 -207q88 0 147 72q54 66 54 111zM2187 494q-31 -78 -71 -140q-27 -35 -54.5 -73.5t-62.5 -63.5q-37 -43 -82 -79t-98 -66 q-41 -25 -75 -41.5t-63 -20.5q-20 -4 -32 -4h-27q-94 0 -168 35q-82 37 -96 102q-2 23 8 47q20 27 66 46q14 -51 84 -93q70 -43 141 -43q20 0 24 2q147 18 267 119q72 57 110.5 134t48.5 153q2 10 2 29v22q0 102 -51 166q-55 70 -155 70q-86 0 -145.5 -42t-76.5 -118v-49 q0 -18 7 -68q0 -18 8 -22t14 -9q-6 -43 -47 -43q-37 0 -49 35l-10 189q-12 51 -52.5 82.5t-99.5 31.5q-74 0 -121 -49t-47 -125q0 -35 14.5 -56.5t49.5 -47.5q0 -18 -2 -21q-10 -23 -35 -22q-31 16 -47.5 57t-16.5 94q-2 6 -2 21q0 109 66 186q68 80 162 80t136 -36t64 -118 q35 78 106.5 118t157.5 40q49 0 97 -18q86 -31 132 -100.5t46 -159.5q0 -61 -25 -131z" />
<glyph unicode="&#xd15;" horiz-adv-x="1591" d="M1585 104q0 -49 -39 -79q-29 -25 -63 -39q-12 57 -84 159q-29 41 -58.5 76t-64.5 64q-27 -78 -125 -164q-80 -72 -152.5 -88.5t-136 5t-115 73t-88.5 112.5q-31 -78 -112 -143q-102 -78 -221 -78q-92 0 -154 49q-70 63 -70 156q0 143 152 254q39 29 89 54.5t116 53.5 q35 117 149 217q145 127 336 127q160 0 275 -90q129 -100 129 -266q0 -61 -19 -125q51 -27 150 -139q106 -121 106 -189zM1260 469q0 141 -140 225q-109 72 -227 72q-49 0 -96 -10.5t-97 -28.5q-113 -49 -178 -137q18 4 47 9t70 11q80 12 131 13q160 0 320 -62 q119 -45 170 -92zM1233 328q-139 121 -324 170q-121 29 -245 28q-37 -2 -79 -3t-77 -11q0 -20 16 -63q2 -4 4 -7.5t4 -7.5q-23 -27 -40 -26q-12 0 -27 12q-14 23 -14 76q-57 -12 -132 -72q-66 -55 -82 -109.5t2.5 -97.5t63.5 -69.5t100 -24.5q127 0 189 104q12 27 25.5 66 t23.5 98l96 21q0 -96 82 -160q78 -63 178 -64q78 0 139.5 36t96.5 104z" />
<glyph unicode="&#xd16;" horiz-adv-x="1630" d="M1630 905q-23 -39 -31 -76.5t-8 -85.5q0 -6 3 -58t12 -153q4 -57 6 -104t2 -86q0 -106 -141 -225q-139 -117 -277 -117q-33 10 -58.5 17.5t-45.5 11.5q-66 14 -119 25.5t-92 19.5q-43 0 -70 -13q-16 -6 -31 -26l19 84q16 53 45.5 74.5t70.5 21.5q20 0 49 -6t44 -8 q68 37 98.5 91t30.5 146q0 168 -142 271q-129 92 -311 92q-125 0 -276 -103q-162 -106 -193 -237q45 55 119 100q90 57 184 70q14 2 25.5 3t19.5 1q102 0 180 -66q76 -63 76 -168q0 -57 -27.5 -110t-84.5 -119q-127 -147 -283 -147q-150 0 -234 80.5t-84 242.5 q0 182 193 363q211 203 479 202q211 0 355 -106q154 -115 153 -301q0 -104 -54 -187t-147 -139q53 -16 109.5 -32.5t108.5 -16.5q92 0 132 52.5t40 144.5q0 45 -7 118q-8 86 -11 144.5t-3 91.5q-6 25 -6 59q0 70 27 109q33 55 108 55h47zM721 307q0 86 -69.5 132t-182.5 46 q-76 0 -150 -34q-49 -27 -100 -74q0 -41 17.5 -73t52.5 -66q82 -86 207 -86q90 0 161 65q33 29 48.5 48t15.5 42z" />
<glyph unicode="&#xd17;" horiz-adv-x="1550" d="M1546 541q0 -174 -125 -318q-49 -57 -111.5 -102t-138.5 -82q-4 -4 -8 -4q-14 -4 -24.5 -6t-18.5 -2q-23 0 -30 14q-8 18 4 37q2 0 5 4t11 8q117 47 176 107q119 113 119 295q0 137 -92 221q-90 84 -226 84q-256 0 -270 -240q-12 -231 -29 -289q-45 -70 -178 -151 q-137 -88 -223 -103q-31 -6 -53 -6q-106 0 -166 84q-59 90 -59 203v270q0 53 46 92t109 39q6 0 15.5 -1t19.5 -3q-23 -12 -32 -56t-9 -104v-73q0 -25 -1 -49.5t-1 -51.5q0 -111 29 -161q37 -72 153 -72q127 0 176 127q35 88 35 235q0 123 154 269q170 158 342 157 q92 0 165.5 -26.5t126 -75.5t81 -117.5t28.5 -152.5z" />
<glyph unicode="&#xd18;" horiz-adv-x="2035" d="M2040 780q-16 -61 -21.5 -115.5t-5.5 -140.5v-143q-45 -137 -194 -248q-184 -135 -402 -135q-201 0 -317 92q-31 27 -60.5 68t-58.5 94q-16 4 -116.5 44t-286.5 118q-131 51 -179 51q-10 2 -26 2h-15q-115 0 -159 -61q-33 -45 -33 -117q-4 -12 -6 -19q-10 -14 -25 -14 q-23 0 -29 14q0 14 -2 21q0 68 25 122t70 92t106.5 58.5t132.5 20.5q53 0 150 -31q72 -23 163 -58.5t199 -88.5q0 166 170 319q172 154 369 176q4 2 33 2q84 0 142 -51t58 -131q0 -133 -157 -279q-174 -158 -404 -192q18 -33 49 -58.5t72 -48.5q51 -29 110.5 -42t127.5 -13 q162 0 258 115q92 106 92 256q-2 37 -3 76.5t-1 58.5q0 76 5 125t21 94q29 16 60 16q70 0 88 -49zM1579 645q0 59 -35 94q-47 53 -160 54q-131 0 -213 -131q-68 -109 -67 -228q0 -47 12 -67q27 -6 66 -7q72 0 144.5 19.5t123.5 58.5q55 39 92 95.5t37 111.5z" />
<glyph unicode="&#xd19;" horiz-adv-x="1851" d="M1849 309q0 -117 -82 -192q-53 -57 -134 -84t-185 -27q-43 0 -61.5 12.5t-16.5 28.5q0 12 4 26.5t33 14.5q18 0 43 -4t45 -4q84 0 143 35q76 39 76 135q0 78 -54 112.5t-128 34.5h-39t-31 -4q-16 -2 -33.5 -9t-31 -11t-23.5 0t-10 24q0 37 16 47q94 0 162 74 q55 63 55 123q0 82 -59 117q-41 23 -100 22q-6 -2 -15 -2h-6q-223 -25 -295 -200q-18 -55 -28.5 -150.5t-10.5 -237.5q0 -41 6.5 -70.5t24.5 -56.5q-10 -25 -43 -45q-6 -2 -15 -4t-22 -6q-41 0 -62.5 57.5t-21.5 163.5l11 258q2 4 2 21q0 102 -45 166q-72 109 -259 108 q-135 0 -248.5 -65.5t-181.5 -194.5q0 -10 2 -12q16 4 29 10q51 74 136 117t177 43q113 0 189 -51q98 -68 98 -191q0 -66 -34.5 -138.5t-104.5 -145.5q-147 -150 -297 -150q-141 0 -229.5 80t-88.5 219q0 240 213 430q205 176 435 176q127 0 223 -86q98 -86 98 -182 q35 53 80 97t105 83q129 86 256 86q98 0 159.5 -41t61.5 -118q0 -72 -54 -144q-20 -27 -41.5 -47t-46.5 -35q137 0 199 -61q55 -54 55 -152zM758 326q8 82 -43 149q-66 88 -191 88q-86 0 -160.5 -37t-103.5 -112q-16 -33 -37 -33q-14 0 -26 18q0 -61 20.5 -113.5t61.5 -86.5 q72 -59 172 -60q33 0 38 2q143 20 220 101q14 16 26.5 38.5t22.5 45.5z" />
<glyph unicode="&#xd1a;" horiz-adv-x="1789" d="M1784 356q0 -152 -197 -258q-137 -76 -280 -98q-129 12 -261.5 24.5t-275.5 22.5q-143 14 -249.5 21.5t-180.5 7.5q-160 0 -223 -25q-2 12 -3 20.5t-1 14.5q0 49 39 96q41 10 113.5 15.5t144.5 5.5q102 0 209.5 -7.5t228.5 -23.5q49 12 94 55t45 99q0 70 -63 118 q-70 57 -191 58q-100 0 -147 -53q-39 -45 -39 -111q2 -10 3 -16.5t1 -10.5q0 -20 -16 -24q-23 -6 -39.5 16.5t-16.5 44.5q14 131 139 205q104 57 224 57q61 0 113.5 -14t90 -41t60 -64.5t22.5 -82.5q0 -80 -57 -154q-51 -63 -117 -92q20 0 54 -2t84 -6q127 -10 212 -14.5 t134 -4.5q84 0 143 31q72 47 72 131q0 25 -2 29q-4 41 -10.5 97t-10.5 130t-7 120t-3 68q0 84 12.5 115t40.5 41q10 2 21.5 4t21.5 4q23 6 41.5 -2t26.5 -8q-8 -18 -18.5 -58t-10.5 -81q0 -4 19 -207q4 -51 7 -98.5t3 -94.5z" />
<glyph unicode="&#xd1b;" horiz-adv-x="2430" d="M2429 471q0 -197 -141 -291q-113 -76 -287 -76q-106 0 -189 64q-92 70 -92 182q0 145 127 236q113 80 252 80q76 0 115 -23q-68 115 -229 154q-57 14 -152 16q-166 0 -297 -115q-133 -111 -147 -272q-2 -8 -3 -39q0 -115 57.5 -174t155.5 -59q12 -12 13 -45 q0 -33 -13.5 -66t-23.5 -35q-4 -4 -23 -4q-31 0 -59.5 5t-56.5 11q-528 61 -957 62q-123 0 -217 -8t-145 -25q-10 27 -11 57q0 57 33 97q51 12 142.5 16t189.5 4q72 0 145.5 -1t151.5 -1q29 10 56.5 24.5t54.5 37.5q59 53 59 112q0 82 -59 135q-68 61 -193 62 q-98 0 -149 -64q-43 -53 -43 -129q6 -18 6 -30q0 -10 -17 -23q-25 -8 -39 14.5t-14 49.5q16 160 141 241q100 70 226 70q123 0 199.5 -64.5t76.5 -175.5q0 -98 -63 -174q-47 -61 -129 -102q51 0 152.5 -6t260.5 -23q-35 14 -55 68.5t-20 132.5q0 176 174 336 q205 190 530 190q219 0 363 -121q143 -118 143 -311zM2271 430q0 76 -8 100q-4 23 -35 82q-6 -33 -28.5 -47t-47.5 -8q-20 29 -44.5 38t-63.5 9q-61 0 -117 -61q-53 -66 -53 -140q0 -106 65 -165q57 -51 127 -52q43 0 80 18.5t64.5 51.5t44 78t16.5 96z" />
<glyph unicode="&#xd1c;" horiz-adv-x="1501" d="M1497 698q0 -84 -78 -153q-57 -51 -133 -80q180 -43 180 -172q-2 -6 -2 -21q-12 -94 -166 -186q-154 -86 -274 -86q-129 0 -195 53q-53 49 -53 125q0 47 23 82l-119 -43q-16 -4 -26 -6l-9 -2q-12 0 -12 14q0 20 24 51l25 25q59 6 117 25q29 10 79 31.5t123 58.5 q16 10 34 17t34 18q49 25 105 30q184 63 184 146q0 51 -47 82.5t-119 31.5q-119 0 -178 -75q-39 -59 -39 -142q0 -12 3 -26.5t3 -20.5q0 -23 -25.5 -38t-56.5 -15q-41 0 -61 20q14 37 14 113q0 115 -39 180q-49 92 -160 92q-37 0 -82 -12q78 -16 124 -64.5t46 -125.5 q0 -61 -131 -195q-156 -156 -293 -156q-86 0 -142 43t-66 119q-12 106 174 283q201 195 399 194q162 0 236 -110q25 -39 43 -115q53 90 135 127t180 37q131 0 188 -76q10 -14 17.5 -33.5t15.5 -44.5zM627 547q0 78 -50.5 116.5t-127.5 38.5q-33 0 -39 -2q-90 -12 -154 -86 q-47 -57 -47 -92q0 -68 67 -100q57 -31 134 -31q66 0 141 60q76 63 76 96zM1337 213q0 63 -63 111q-61 41 -135 41q-115 0 -191 -37q-74 -41 -74 -80q0 -74 72 -117q88 -51 195 -41q90 10 143 49t53 74z" />
<glyph unicode="&#xd1d;" horiz-adv-x="2658" d="M2664 850q-23 -10 -22 -160v-61q0 -145 -8 -239.5t-45 -147.5q-119 -121 -234 -181q-98 -45 -201 -45q-111 0 -204 62q-72 53 -117 137q-12 -35 -32.5 -67.5t-51.5 -61.5q-68 -74 -164 -74q-106 0 -151 99q-35 76 -35 196q0 41 5 77t5 46q2 6 2 21v18q0 47 -9 90t-26 82 q-45 92 -137 92h-12t-19 -2q45 -59 68 -94q16 -35 26.5 -70t10.5 -67v-43q0 -166 -164 -320q-145 -137 -275 -137q-131 0 -212.5 88t-81.5 227q0 143 135 277q51 47 104 83t115 62q-20 8 -36.5 11.5t-29.5 7.5q-76 20 -172 20q-111 0 -204 -42t-173 -124 q-152 -152 -151 -338q0 -55 20 -100q31 -59 103 -80q-23 -66 -62 -65q-45 0 -84 77q-20 43 -31.5 86t-11.5 86q0 256 201 445q197 190 477 190q80 0 142 -18q94 -25 184 -88q31 10 60.5 13t58.5 3q133 0 221 -71q94 -70 94 -191l-6 -313q0 -51 25.5 -91t74.5 -40 q68 0 111 69q45 66 45 152v113v49q0 23 2 39q2 41 6 81.5t8 88.5q4 6 7.5 12t7.5 14q14 23 61 23q41 0 60 -47q-10 -23 -16.5 -89.5t-6.5 -142.5q0 -111 14 -141q47 -111 138 -168q74 -55 174 -55q137 0 215 108q18 31 31.5 74t17.5 100q4 39 4 113v170q2 23 2 43v39v61 q8 29 23.5 41t50.5 12t63 -14q2 -2 5 -4t7 -6zM1184 358q2 4 2 13v24q0 49 -11.5 92t-33.5 78q-49 82 -137 127q-88 0 -195 -96q-117 -102 -117 -223q0 -96 60 -160q72 -72 209 -72q88 0 153 66q70 65 70 151z" />
<glyph unicode="&#xd1e;" horiz-adv-x="2408" d="M2404 420q0 -117 -84 -238q-82 -115 -200 -162q-23 -4 -40.5 -11t-27.5 -7q-16 0 -12 18q2 33 10 39.5t43 16.5q92 31 152 127q25 47 38 93t13 99q0 100 -82 185q-92 92 -207 92q-27 0 -57 -6q66 -47 100 -119q16 -29 22.5 -49.5t6.5 -32.5q0 -205 -197 -340 q-78 -51 -136 -78t-106 -27q-82 0 -149 60q-102 80 -102 219q0 104 112 223q86 94 158 119q-14 2 -22.5 3t-16.5 1q-59 6 -72 6q-27 0 -30 -2q-213 -27 -287 -190q-18 -100 -34.5 -199.5t-31.5 -198.5q-41 -41 -82 -41q-23 0 -32 21q0 86 1 133t3 64q8 47 13 97t13 99 q-4 23 -6 46.5t-4 45.5q-25 109 -104 176q-109 96 -314 97q-121 0 -235 -70q-135 -80 -185 -209q86 82 175.5 118t205.5 36q123 0 223.5 -76t100.5 -186q0 -135 -135 -262q-147 -145 -352 -146q-154 0 -248 92q-96 96 -97 232q0 246 238 428q195 152 391 151q213 0 338 -102 q123 -96 123 -256q94 100 205 156q129 63 274 63q78 0 154 -29q6 -2 12 -5l14 -7q41 10 88.5 23.5t120.5 13.5q166 0 253 -92t87 -252zM1956 346q0 119 -90 197q-70 66 -115 65q-55 -10 -135 -73q-90 -74 -98 -162q-2 -2 -2 -27q0 -90 55 -146.5t153 -56.5q6 2 17 2h10 q70 6 137.5 67.5t67.5 133.5zM825 319q0 90 -88 160q-88 72 -198 82h-31h-25q-100 0 -157 -35q-16 -6 -41 -37q-10 -37 -11 -47q0 -37 43 -55q-20 -18 -43.5 -23.5t-33.5 -5.5q-6 2 -13 2h-8h-12q27 -117 132 -179t253 -62q70 0 147 61q86 69 86 139z" />
<glyph unicode="&#xd1f;" horiz-adv-x="997" d="M999 262q-18 -123 -163 -196q-147 -68 -340 -68q-150 0 -248 53q-45 23 -79 52.5t-60 64.5q2 33 12 51q29 59 90 78q33 -84 176 -141q141 -55 301 -56q72 0 124 33t58 68q16 100 -151 147q-72 20 -158 33q-84 8 -153.5 26.5t-119.5 45t-78 60.5t-28 73q0 94 119 202 q141 123 311 123q96 0 203 -45q100 -47 127 -127q-10 -53 -70 -84q-14 -8 -59 -24q0 66 -80 106q-82 45 -174 45q-55 0 -102 -10t-82 -26.5t-54.5 -41t-19.5 -51.5q0 -49 71.5 -86t217.5 -55q242 -31 344 -106q77 -62 65 -144z" />
<glyph unicode="&#xd20;" horiz-adv-x="1222" d="M1214 514q0 -176 -170 -346q-168 -168 -370 -168q-207 0 -377 102q-193 119 -193 304q0 72 35 146.5t88 131.5q-35 -76 -34 -143q0 -170 184 -293q156 -104 297 -105q162 0 272 62q119 68 137 188q2 18 3 30.5t1 20.5q0 131 -96 215q-109 90 -297 91q-100 0 -190 -29 q-115 -41 -178 -137q-6 -23 6 -49q31 -74 30 -76q0 -14 -14 -27q-31 -12 -53.5 27t-22.5 104q0 70 34 139.5t106 116.5q82 55 149 72q76 16 170 16q217 0 350 -108.5t133 -284.5z" />
<glyph unicode="&#xd21;" horiz-adv-x="2027" d="M2019 883q-16 -6 -19 -49t-3 -95v-90v-41t2 -43q0 -121 -10.5 -193.5t-40.5 -123.5q-125 -125 -258 -189q-111 -49 -215 -49q-121 0 -224 66q-82 57 -129 147q-25 -53 -47 -88t-39 -53q-82 -82 -190 -82q-119 0 -170 123q-33 94 -33 227v51v21q0 10 2 18v45 q0 117 -20 158q-33 76 -131 76q-123 0 -222 -105q-102 -111 -102 -270q0 -68 37 -125q45 -74 125 -100q-31 -49 -72 -49q-59 0 -108 82q-47 84 -48 192q0 221 140 361q137 143 331 143q104 0 161 -75t57 -191l-5 -332q0 -53 31 -97t86 -44q72 0 119 81q45 86 45 175 q0 174 18 374q4 6 8.5 12.5t8.5 14.5q14 25 67 25q29 0 47.5 -10.5t28.5 -39.5q-10 -29 -19 -102.5t-9 -149.5q0 -59 2 -88.5t12 -50.5q49 -121 145 -182q90 -57 193 -57q154 0 233 110q29 51 41.5 121t12.5 131q0 37 -3 43q2 23 3 45v47v90q2 25 2 47v41v66q12 57 82 57 q35 0 61 -14q8 -4 16 -12z" />
<glyph unicode="&#xd22;" horiz-adv-x="2381" d="M2382 528q0 -207 -199 -368q-195 -162 -440 -162q-147 0 -275.5 72.5t-201.5 199.5q-41 -84 -121 -157q-92 -80 -172 -80q-129 0 -180 100q-37 70 -37 199q0 41 2 67.5t4 49.5q0 168 -37 235q-53 96 -193 96q-166 0 -264 -141q-90 -125 -90 -287q0 -98 39 -160.5 t125 -78.5q6 -16 6 -27q0 -12 -12 -27.5t-41 -15.5q-14 0 -29 8q-63 33 -102 103q-57 94 -58 229q0 219 150 385q139 152 311 152q29 0 35 -2q129 -12 215 -103q86 -86 86 -231v-242q0 -106 26.5 -146t94.5 -40q88 0 133 80.5t45 201.5q-4 18 -6 42t-2 52q0 53 6 106.5 t17 106.5q20 100 63 117q2 2 23 2q33 0 60.5 -14t27.5 -37q-10 -25 -16.5 -49.5t-10.5 -46.5q-14 -70 -14 -172q0 -143 92 -260q131 -168 409 -168q184 0 295 110q100 100 101 244q0 121 -62 211q-96 141 -303 141q-88 0 -149 -67q-63 -63 -64 -138q0 -109 100 -178 q82 -51 173 -51q63 0 86 41q10 25 17 44.5t13 31.5q6 10 19 10q18 0 30 -14q6 -6 4 -19.5t-4 -23.5q0 -43 -82 -113q-100 -84 -213 -84q-86 0 -167 64q-109 84 -109 219q0 111 113 233q137 139 344 140q193 0 297 -123q92 -105 92 -267z" />
<glyph unicode="&#xd23;" horiz-adv-x="2805" d="M2806 555q0 -164 -121 -293q-88 -92 -223 -164q-104 -49 -123 -49q-8 -8 -33 -8q-23 0 -37 12.5t-14 28.5q0 10 8 23.5t14 13.5q133 0 244 104q115 111 129 238q2 4 2 28q0 119 -100 201q-111 92 -293 92q-217 0 -387 -106q-152 -96 -152 -217q-4 -20 -5 -33.5t-3 -26.5 q-4 -35 -6 -68.5t-2 -64.5q0 -53 5 -87t17 -62q-23 -33 -43 -41t-53 -8h-35q-8 31 -12 84t-4 106v47v31q0 16 2 36.5t2 37.5v34v50q0 55 -55 90q-53 35 -115 34q-4 0 -11 -1t-18 -3q-117 -20 -161 -110q-33 -66 -33 -191q0 -16 1 -43.5t3 -68.5t2 -62v-22q0 -18 -35 -31.5 t-82 -13.5q-8 23 -8 49q-12 80 -12 160q0 16 1 36.5t3 51.5q6 57 6 75q2 4 2 15v14q0 145 -147 234q-119 76 -277 75q-119 0 -250 -71q-135 -82 -180 -199q-12 -37 -16 -61.5t-4 -40.5t6 -25q33 53 65.5 91t67.5 67q131 106 309 106q106 0 205 -67q96 -66 96 -160 q0 -100 -123 -244q-152 -170 -336 -170q-176 0 -280 111q-98 100 -98 256q0 168 157 330q186 190 475 190q223 0 355 -127q88 -90 96 -180q117 135 303 135q84 0 139 -43q33 -20 68 -82q88 131 231 213q172 98 404 98q184 0 319 -88q150 -98 150 -266zM836 315q0 80 -76 138 q-35 31 -80 45t-98 14q-102 0 -188.5 -31.5t-147.5 -105.5q20 -16 38.5 -30.5t41.5 -18.5q0 -31 -17.5 -38t-62.5 -14q39 -53 110 -92q88 -51 207 -51q92 0 182.5 65.5t90.5 118.5z" />
<glyph unicode="&#xd24;" horiz-adv-x="1789" d="M1786 461q0 -123 -78 -240q-84 -125 -205 -170q-18 -8 -31.5 -13t-19.5 -5q-16 0 -22 28q-8 41 45 56q104 31 155 125q43 82 43 188q0 121 -98 221q-113 121 -291 121q-31 0 -63.5 -4t-69.5 -12q51 -27 94 -84q57 -76 58 -162q2 -6 2 -43q0 -154 -166 -309 q-150 -137 -279 -152q-8 -2 -26 -2h-21q-117 0 -182.5 65.5t-65.5 180.5q0 23 1 36t3 23q18 117 133 252q102 119 197 168q-18 8 -33.5 12t-29.5 9q-41 10 -85 15t-89 5q-205 0 -343 -129q-139 -129 -139 -309q0 -16 1 -32.5t3 -27.5q10 -63 39 -100q41 -55 121 -80 q-16 -74 -74 -74q-57 0 -108 74q-55 88 -56 205q0 264 181 436q182 174 463 174q106 0 196 -33q63 -25 105 -55q147 63 331 64q199 0 308 -121q51 -51 74.5 -117.5t23.5 -146.5q0 -31 -2 -37zM1153 383q0 125 -70 217q-43 45 -106 84q-35 -10 -75 -40t-85 -77 q-102 -109 -112 -209q0 -117 36 -161q45 -66 166 -66q92 0 170 80q76 82 76 172z" />
<glyph unicode="&#xd25;" horiz-adv-x="1529" d="M1530 569q0 -195 -176 -368q-205 -201 -498 -201q-178 0 -318.5 43t-237.5 128t-148.5 209t-51.5 284q0 31 3 58.5t8 51.5q2 18 24 80q25 29 44.5 41t29.5 12q6 2 24 2q27 0 46.5 -5t37.5 -23q-29 -16 -47 -78q-16 -66 -16 -117q0 -262 168 -416q154 -135 383 -135 q-86 41 -126 116t-40 167q0 188 180 346q164 150 342 149q190 0 289 -116q80 -93 80 -228zM1391 477q0 156 -101 248q-88 82 -213 82q-33 0 -39 -2q-84 -10 -164 -123q-72 -100 -77 -143q-2 -23 -3 -37.5t-1 -22.5v-24q0 -100 35.5 -157.5t113.5 -57.5q35 0 88 30q8 2 25 19 v-31q-33 -33 -76 -61q-31 -23 -59.5 -40.5t-57.5 -31.5h53q35 0 69 2t67 8q86 16 146 44t101 65q93 83 93 233z" />
<glyph unicode="&#xd26;" horiz-adv-x="1241" d="M1235 334v-23q0 -152 -170 -243q-131 -66 -225 -66q-23 4 -42.5 19.5t-19.5 39.5q0 14 8 29q6 -2 23 -2h29q106 0 176 29q102 47 102 149q0 47 -45 80q-49 43 -125 43h-22q-10 -2 -15.5 -3t-7.5 -1q-23 -4 -49.5 -12t-56.5 -19q-59 -16 -96 -25.5t-60 -11.5 q-14 6 -27.5 32t-13.5 50q0 27 14 52q78 23 125 35t66 20q154 61 153 145q0 51 -24 76q-45 45 -174 45q-207 0 -391 -151q-193 -150 -193 -320q-2 -8 -2 -16v-11v-18q0 -63 22.5 -110.5t90.5 -94.5q0 -23 -22.5 -35t-51.5 -12q-23 0 -31 8q-78 49 -78 207q0 301 238 508 q205 180 448 180q66 0 122.5 -11t96.5 -34.5t62.5 -59.5t22.5 -85q0 -74 -52 -137q-23 -27 -48 -44.5t-56 -31.5q23 4 37 6t39 2q94 0 149 -37q74 -41 74 -141z" />
<glyph unicode="&#xd27;" horiz-adv-x="1691" d="M1683 877q0 -59 2.5 -108.5t4.5 -92.5q0 -59 -4.5 -115.5t-22.5 -140.5q-27 -115 -186 -264q-180 -156 -340 -156q-164 0 -273 51q-147 72 -190 258q-25 -115 -101 -198q-90 -98 -202 -99q-127 0 -201 105q-63 90 -64 235q0 160 105 342q104 184 201 209q14 10 32 10 q14 0 22.5 -9t8.5 -19q0 -8 -10 -25l-10 -10q-82 -29 -154 -152q-39 -61 -62.5 -124.5t-31.5 -135.5q-2 -16 -3 -35.5t-1 -27.5q0 -102 48 -154.5t159 -52.5q86 0 157 90q72 88 72 199q0 66 1 119t6 99t13.5 87t24.5 82q12 16 42 22t58 6q16 0 29.5 -1t24.5 -3 q-39 -168 -39 -315q0 -256 153 -348q47 -29 115 -42t156 -13q41 0 78.5 7t72.5 23q88 39 113 117q23 53 31 126t8 152q0 45 -1 86t-1 82q0 66 10 103q20 18 49 29.5t53 11.5q20 0 47 -10z" />
<glyph unicode="&#xd28;" horiz-adv-x="1714" d="M1712 506q0 -186 -104 -342q-102 -158 -211 -168q-23 0 -41.5 16.5t-18.5 38.5q0 16 9 31q92 0 165 80q96 102 97 284q0 115 -107 207q-115 98 -272 99q-33 0 -39 -2q-186 -18 -293 -123q-90 -90 -90 -189q-2 -35 -3 -79t-1 -97q0 -133 14 -147q0 -27 -28.5 -56.5 t-61.5 -35.5q-27 -6 -44 11t-17 52q0 70 1 146.5t3 142.5q0 182 -39 252q-49 92 -178 92q-127 0 -203 -111q-78 -109 -78 -260q0 -115 55 -190q49 -66 103 -72q8 -6 8 -18q0 -20 -23.5 -42t-52.5 -22q-61 33 -100 107q-57 106 -58 284q0 180 109 338q111 156 262 156 q129 0 209 -68q100 -86 100 -192q78 133 195 207q131 80 311 79q195 0 309 -120q113 -119 113 -289z" />
<glyph unicode="&#xd2a;" horiz-adv-x="1839" d="M1841 844q-41 6 -58.5 -27t-17.5 -90q0 -25 1 -59.5t3 -57.5q8 -76 11.5 -113.5t3.5 -39.5q0 -195 -154 -332q-135 -123 -266 -123q-127 0 -311 70q-94 35 -184.5 69.5t-176.5 69.5q-190 76 -276 76q-102 0 -164 -31q-80 -41 -80 -129q0 -16 15.5 -38.5t9.5 -39.5 q-18 -47 -50 -47q-41 0 -41 90q0 150 101 244q102 96 239 96q127 0 320 -72q94 -35 188.5 -71.5t192.5 -73.5q199 -72 336 -72q78 0 106 60q23 51 23 149q0 72 -2 118t-4 87v150q0 100 19.5 149t82.5 49q35 0 78 -14q6 -2 18.5 -5t28.5 -12z" />
<glyph unicode="&#xd2b;" horiz-adv-x="2076" d="M2077 530q0 -231 -224 -387q-207 -141 -469 -141q-188 0 -419 72q-23 8 -363 141q-205 78 -301 78q-61 0 -95 -28.5t-34 -67.5q0 -33 12.5 -66t12.5 -47q0 -43 -43 -43q-20 0 -34 15.5t-14 47.5q0 154 70 242q78 102 211 103q94 0 264 -68q86 -33 169 -65.5t169 -67.5 q174 -66 223 -66q-37 20 -55 43q-57 63 -57 160q0 199 164 358q162 162 391 162q180 0 301 -104q121 -103 121 -271zM1944 428q0 152 -117 248q-113 94 -283 94q-127 0 -227 -80t-100 -198q0 -92 49 -150q43 -51 98 -51q31 0 53 18l31 -20l-137 -129q49 -10 80 -13 q94 -12 178 -12q145 0 252 70q123 80 123 223z" />
<glyph unicode="&#xd2c;" horiz-adv-x="2258" d="M2253 815q-43 0 -51 -18q-8 -14 -9 -119q0 -27 5.5 -58.5t10.5 -64.5t10 -65.5t5 -61.5q0 -53 -36 -114.5t-107 -143.5q-150 -174 -262 -174q-35 0 -99 18q-154 41 -194 41q-117 0 -180 -24q-20 0 -30.5 20.5t-10.5 48.5q2 6 2 21q6 43 47 59q6 2 30.5 1t69.5 3 q88 10 184 95q98 86 99 172q0 92 -62.5 145t-161.5 53q-135 0 -217 -80q-59 -55 -79 -123q-4 -29 -7.5 -62.5t-6.5 -68t-5 -68.5t-2 -59q0 -23 1 -30.5t3 -16.5q0 -31 -27.5 -54.5t-72.5 -35.5q-23 0 -33 37t-10 105q0 29 5 81t15 127q4 39 7 70t3 57q0 102 -135 183 q-127 72 -256 71q-174 0 -317 -86t-143 -207q72 57 106 80q94 57 185 71.5t162 -7t114 -75.5t43 -134q0 -66 -37 -126t-113 -128q-145 -127 -250 -127q-125 0 -233 96q-53 49 -80 99.5t-27 113.5q0 213 232 396q217 168 444 167q217 0 353 -151q41 -43 94 -154q57 51 100 76 q133 78 266 78q113 0 197 -59q96 -72 96 -191q0 -129 -137 -248q-23 -20 -57.5 -37.5t-81.5 -44.5q68 0 153 -26q92 -25 125 -25q37 0 69 14.5t60 53.5q55 80 56 159q0 16 -6.5 56.5t-16.5 106t-16 114.5t-6 84q0 59 30.5 98t83.5 39q29 0 54.5 -4t46.5 -8zM717 330 q0 39 -16.5 71.5t-45 55t-65.5 36t-78 13.5q-102 0 -209 -47q-16 -8 -36.5 -19.5t-43.5 -27.5q25 -80 53 -129q43 -66 105.5 -92.5t146.5 -26.5q35 0 67 9t60 38q62 58 62 119z" />
<glyph unicode="&#xd2d;" horiz-adv-x="1060" d="M1057 670q0 -78 -74 -183q-74 -102 -149 -102q-47 0 -111 37q-137 82 -154 82q-25 0 -47 -26.5t-22 -49.5q0 -90 231 -96q233 -6 234 -150q0 -70 -88 -127q-88 -53 -166 -53h-23q-16 0 -35.5 7t-19.5 30q0 12 24 16q59 0 111 11q72 16 72 57q0 51 -34 69.5t-97 18.5 q-20 0 -64.5 -2t-64.5 -2q-84 0 -125 22q-53 31 -54 119q0 80 82 180q84 102 156 103q33 0 121 -58q88 -55 135 -55q18 0 31 6q35 16 35 60q0 66 -50 108q-78 66 -241 66q-211 0 -365 -164q-143 -150 -143 -330q0 -70 14 -110q14 -47 78 -127q4 -10 -12.5 -17.5t-20.5 -9.5 q-37 -10 -74 31q-20 41 -30.5 103.5t-10.5 148.5q0 258 193 442q193 186 438 186q123 0 211 -57q109 -71 109 -184z" />
<glyph unicode="&#xd2e;" horiz-adv-x="985" d="M993 485q-25 -31 -32 -98q-10 -104 -19.5 -161.5t-13.5 -71.5l-92 -99q-55 -55 -91 -55h-622l12 43q78 57 293 165.5t277 156.5q125 94 124 202q0 51 -65 99q-90 59 -229 59q-141 0 -254 -94q-111 -92 -111 -219q0 -70 25 -109q16 -25 53 -51q-18 -35 -58 -35 q-27 0 -47 21q-37 49 -37 174q0 195 158 340t373 145q135 0 229 -70q94 -68 95 -172q2 -6 2 -24q0 -43 -15.5 -85t-42.5 -61h88zM838 227l-11 162q-53 -78 -163 -141q-41 -25 -99.5 -53.5t-136.5 -61.5q6 2 51 2q74 0 129.5 -2t104.5 -4q23 0 45 -1t40.5 2t30 10t11.5 26 q-2 10 -2 31v30z" />
<glyph unicode="&#xd2f;" horiz-adv-x="1673" d="M1663 391q0 -123 -111 -248q-139 -152 -342 -151q-119 0 -200 43q-35 27 -55.5 41t-26.5 18q-47 -16 -93.5 -33.5t-93.5 -33.5q-121 -27 -233 -27q-152 0 -264 53q-137 70 -138 201q0 137 123 233q102 78 177 78q59 127 163 217q139 121 301 121q176 0 287 -112 q111 -115 111 -277q-8 -104 -72 -199q-27 -41 -58.5 -72.5t-68.5 -54.5q57 -41 129 -66.5t129 -25.5q102 0 146 86q35 76 34 203q0 68 -6 139.5t-12 163.5q0 111 19.5 147.5t80.5 36.5q27 0 49.5 -10t22.5 -31q-4 -23 -7 -50t-3 -62v-62v-24q0 -10 2 -21q4 -98 7 -153.5 t3 -67.5zM1104 432q0 131 -76 232q-86 115 -221 114q-33 0 -86 -13t-117 -58q-84 -57 -131 -146q111 0 272 -119q66 -51 132.5 -102t132.5 -102q18 20 32.5 39.5t24.5 37.5q31 56 37 117zM862 139q-39 43 -198 156q-174 125 -220 125l19 -55q8 -14 17 -25.5t20 -22.5 q-12 -12 -21 -16q-29 -16 -49 -16q-12 0 -24 6q-33 33 -33 98q0 23 6 41q-16 4 -43 4q-45 0 -79 -10t-34 -31q-2 -6 -2 -37q0 -135 131 -209q113 -63 271 -63q122 0 239 55z" />
<glyph unicode="&#xd30;" horiz-adv-x="1275" d="M942 461q-16 8 -43 17t-68 9t-72.5 -15t-53 -39.5t-32.5 -56.5t-11 -63q0 -121 77 -174q53 -35 129 -35q92 0 166 80q76 76 76 187q0 92 -16 145q-16 49 -72 113q-109 133 -385 133q-193 0 -332 -139q-135 -139 -135 -334q0 -84 45 -148q47 -66 82 -63q14 -2 14 -31 q0 -37 -20 -43q-14 -4 -38 4t-44 27q-102 98 -103 264q0 229 160 408q182 201 473 200q238 0 379 -116q152 -127 152 -351q0 -166 -142 -284q-186 -156 -366 -156q-127 0 -213 88q-70 70 -70 193q12 133 125 208q98 68 219 68q35 0 64 -6q25 -8 41 -45q18 -33 14 -45z" />
<glyph unicode="&#xd31;" horiz-adv-x="1302" d="M1298 516q0 -195 -135 -348q-35 -43 -174 -148q-6 -6 -14 -8q-23 -12 -35 -12q-14 0 -29 10q-20 8 -20 29q0 8 8 22l2 3q2 4 6 10q125 49 209 145q86 100 86 197q0 127 -78 205q-113 113 -368 112q-221 0 -402 -131q-178 -133 -178 -321q0 -76 12.5 -118t34.5 -71 q6 -6 10 -14q12 -23 13 -33q0 -18 -23 -29q-12 -4 -18 -4q-18 0 -33 11l-14 14q-35 41 -42 97t-7 120q0 262 204 459q207 199 504 198q213 0 352 -120q129 -115 129 -275z" />
<glyph unicode="&#xd32;" horiz-adv-x="1462" d="M1460 858q-8 -4 -14 -9t-11 -25.5t-7.5 -61.5t-2.5 -117v-96q0 -45 2.5 -90t2.5 -70v-27q2 -49 -80 -186q-109 -172 -228 -172h-936q-10 0 -19 -2t-13 -4q-35 -16 -48 -43v375q0 215 154 387q166 186 406 186q156 0 252 -98q88 -88 88 -215q-43 -68 -126 -120t-227 -87 h-446v-227h942q80 0 115.5 29.5t35.5 84.5q0 2 -12 215q-4 106 -7 192.5t-3 151.5q6 37 25.5 60.5t58.5 23.5q53 0 75.5 -14t22.5 -41zM842 516q2 4 2 33q0 92 -74 154.5t-199 62.5q-133 0 -254 -102q-117 -102 -116 -197q20 20 61 55q8 6 15.5 13.5t17.5 15.5 q2 -10 26.5 -17.5t65.5 -11.5t95.5 -6t115.5 -2h31h26h25h80h41t41 2z" />
<glyph unicode="&#xd33;" horiz-adv-x="1267" d="M1266 358q0 -96 -207 -223q-104 -63 -191.5 -102t-154.5 -39l-398 -4q-6 -2 -16 -14.5t-20.5 -29t-16.5 -32.5t-4 -25q10 -33 81 -58.5t200 -25.5h313q111 0 133 2q45 2 129 25q8 -16 8 -45q0 -14 -3 -31.5t-10 -34t-16.5 -27.5t-21.5 -11q-27 -4 -81 -5.5t-140 -3.5 q-84 -2 -155.5 -3t-133.5 -1h-121h-57q-109 0 -160 23q-29 10 -46 48t-17 69q0 16 4 45.5t12 63.5t20.5 65.5t28.5 54.5q37 45 73 64.5t71 19.5h411q84 0 195 35q147 49 147 131q0 51 -45 67q-31 10 -67 11q-10 0 -36 -2.5t-42 -2.5q-20 0 -35.5 4.5t-28.5 8.5 q-12 20 -12 43q0 10 4 15t8 16h23q59 0 96 43t37 106q0 102 -102 154q-53 29 -112.5 41t-125.5 12q-143 0 -305 -84q-88 -55 -133 -113.5t-45 -124.5q-2 -8 -2 -16v-16q0 -12 2 -25.5t6 -30.5q2 -12 10 -26q14 61 44 119.5t71 105.5q111 129 276 129q86 0 164 -55 q76 -45 76 -129q0 -102 -146 -244q-78 -78 -156.5 -116t-156.5 -38q-111 0 -188 45q-104 61 -105 189q0 170 199 344q227 190 528 190q66 0 123.5 -12t106.5 -45q53 -33 81.5 -75t28.5 -95q0 -49 -18.5 -90t-83.5 -98q102 0 160 -45q45 -34 45 -91zM735 440q0 72 -44 108 t-122 36q-121 0 -215 -82q-16 -14 -31.5 -33.5t-35.5 -48.5q0 -10 8 -22.5t8 -22.5q0 -20 -41 -45q18 -29 54 -45.5t110 -16.5h33h18t17 2q100 0 178 72q63 67 63 98z" />
<glyph unicode="&#xd34;" horiz-adv-x="1069" d="M1067 692q0 -123 -94 -219q-76 -80 -197 -121q-2 0 11.5 -30.5t13.5 -71.5q0 -123 -150 -201q-111 -51 -225 -51q-63 0 -123 27q-76 37 -76 104q4 29 45 52.5t97 23.5v-21q0 -47 34 -75q45 -41 129 -41q59 0 102.5 33.5t43.5 93.5q0 8 -5 28.5t-12.5 41t-16.5 36.5 t-15 16q-39 -6 -82 -14t-68 -8q-182 0 -267 57.5t-85 179.5q0 35 2 41q4 45 23.5 92.5t56.5 94.5q80 100 190 147h27q18 0 20 -16q4 -25 -8 -37q-8 -4 -14 -6q-72 -14 -118 -72.5t-62 -132.5q-6 -31 -6 -51q0 -98 93 -154.5t259 -56.5q-41 47 -71 104.5t-30 92.5 q0 143 140 229q109 63 215 63q100 0 155 -36q68 -48 68 -142zM936 631q0 72 -33 110q-35 49 -127 50q-63 0 -111.5 -38t-48.5 -110q0 -61 50 -137q37 -57 69 -88q76 6 148 78q53 59 53 135z" />
<glyph unicode="&#xd35;" horiz-adv-x="1570" d="M1575 893q-16 -23 -22.5 -53.5t-6.5 -69.5q0 -31 13 -174q6 -74 6 -129q0 -207 -144 -350q-125 -121 -237 -121q-61 6 -125 11t-121 9t-105.5 6.5t-78.5 2.5q-43 0 -75 26.5t-32 79.5q0 20 6 37q6 -2 17 -2h12q137 0 266 74q158 90 158 235q0 139 -137 207 q-102 49 -244 49q-45 0 -51 -2q-248 -27 -377 -131t-129 -258q0 -109 51 -166q23 -25 42.5 -46.5t35.5 -39.5q8 -25 -4 -40t-35 -15q-20 0 -39 20q-49 55 -72 97q-39 76 -38 206q0 213 184 385t426 172q248 0 381 -88t133 -237q0 -123 -94 -254q-35 -47 -74 -87t-84 -75 q31 0 158 -18q125 -18 170 -19q59 0 87.5 55.5t28.5 153.5q-10 88 -19 188.5t-9 174.5t14 120.5t55 59.5q23 4 57 5t52 1z" />
<glyph unicode="&#xd36;" horiz-adv-x="1519" d="M1518 508v-19q0 -182 -181 -344q-168 -143 -313 -143q-61 0 -112.5 19.5t-88.5 55.5t-58.5 87t-21.5 112q0 154 144 261q121 96 252 96q25 0 47 -7.5t49 -23.5q51 -35 51 -74q2 -16 -8 -32.5t-28.5 -30.5t-42 -24.5t-46.5 -12.5q-23 33 -39 53q-49 55 -100 56 q-53 0 -90 -50.5t-37 -128.5q0 -129 96 -200q76 -51 139 -52q70 0 158 93q94 102 94 221q0 154 -108.5 262.5t-274.5 108.5q-16 0 -32.5 -1.5t-32.5 -3.5q-217 -31 -320 -233l-118 -360q-55 -176 -187 -177q-80 0 -135 74q-47 72 -55 143.5t-8 128.5q0 123 24 281 q6 47 15.5 98.5t23.5 104.5q8 8 14.5 12t10.5 8q27 16 57 17q31 0 52.5 -9.5t21.5 -37.5q-23 -61 -43 -164q-10 -59 -16.5 -106.5t-6.5 -88.5q0 -27 -1 -56.5t-1 -62.5q0 -63 6 -104t17.5 -64.5t28 -33t36.5 -9.5q4 0 9.5 1.5t15.5 3.5q51 12 104 221q39 150 92 245 q90 170 217 244q51 27 115 41.5t135 14.5q174 0 305 -84q175 -109 175 -326z" />
<glyph unicode="&#xd37;" horiz-adv-x="1974" d="M1978 768q-29 -59 -28 -152q0 -23 1 -53.5t3 -66.5q6 -74 6 -84q0 -84 -170 -236q-201 -176 -399 -176q-162 0 -371 88q-92 41 -178 83t-178 83q-197 90 -285 90q-113 0 -170 -49q-51 -39 -51 -96q2 -10 6 -23q20 -45 43 -72q6 -6 6 -18q0 -18 -18 -33q-12 -6 -27.5 1 t-29 25.5t-23 47.5t-9.5 63q0 109 84 189q94 84 250 84q127 0 308 -78q109 -47 214 -93t214 -93q20 10 36.5 17t28.5 15q150 78 266 166l-151 -16q-162 0 -260 43q-117 51 -117 170q0 27 2 33q10 78 111 170q133 121 307 121q127 0 197.5 -54.5t70.5 -142.5q0 -27 -2 -31 q-8 -37 -12 -60.5t-8 -39.5q-8 -29 -17.5 -57.5t-21.5 -61.5q158 109 192 182q18 88 37 131q25 18 68 19q33 0 54 -9.5t21 -25.5zM1538 612q-25 133 -147 187q-20 10 -50 15t-67 9q-53 0 -103 -41q-47 -39 -57 -86q-2 -2 -2 -26q0 -78 82 -138q68 -47 188 -65q43 -6 91 -6 h34q18 0 25 2l10 45t4 41q0 12 -3 31.5t-5 31.5zM1821 360q0 53 -3 99.5t-6 101.5q-33 -37 -79.5 -80t-112.5 -90q-119 -84 -225 -149q-37 -20 -73 -41t-75 -43q59 -23 115.5 -34t103.5 -11h31q109 0 215 84q109 83 109 163z" />
<glyph unicode="&#xd38;" horiz-adv-x="2025" d="M2025 408q0 -117 -153 -267q-145 -141 -227 -141q-190 0 -308 135q-10 12 -48 76.5t-103 183.5q-80 141 -168 142q-94 0 -137 -91q-31 -66 -31 -178q0 -47 4 -75.5t10 -53.5q4 -35 -22 -61q-8 -8 -15.5 -14.5t-17.5 -12.5t-23 -6q-23 0 -40 18.5t-17 55.5l10 330 q0 106 -55 180q-78 115 -238 114q-121 0 -200 -84q-80 -86 -80 -198q0 -121 39 -205q33 -59 108 -109q12 -8 23.5 -22t11.5 -31q0 -10 -6 -18q-16 -18 -45 -19q-35 0 -57 25q-72 82 -101 172q-35 109 -35 238q0 197 129 319q113 109 246 109q160 0 250 -109 q117 -141 98 -287q18 37 38 65.5t36 47.5q63 68 154 68q106 0 213 -150l176 -276q119 -150 237 -150q16 0 28.5 1t23.5 3q94 20 135 107q29 70 28 182l-20 373q0 47 34 71.5t81 24.5q20 0 24 -2q0 -37 1 -90.5t3 -124.5q2 -70 4 -135t2 -131z" />
<glyph unicode="&#xd39;" horiz-adv-x="2539" d="M2535 512q0 -186 -112 -317q-78 -92 -211 -158q-90 -43 -115 -43q-6 0 -14 -1t-19 -1q-18 0 -33.5 3t-15.5 13t15 25q141 43 223 131q109 121 108 313q0 127 -92 223q-106 115 -289 115h-34q-18 0 -25 -2q-176 -18 -303 -145q-125 -125 -125 -271q0 -102 41 -180 t100 -106q41 -10 57.5 -26.5t16.5 -43.5q0 -45 -49 -45h-1208q-6 2 -19 2q-8 0 -10 2q-27 12 -27 41q0 27 20.5 43t39.5 16h39q100 0 161 23q86 33 86 127q0 47 -60 85t-173 38q-88 0 -191 -45q-137 -63 -137 -181q0 -25 7.5 -45t16.5 -35.5t16 -26.5t9 -17q6 -12 7 -23 q0 -29 -35 -29q-8 0 -19.5 4.5t-21.5 18.5q-16 18 -24.5 55t-8.5 55q0 170 152 297q156 125 342 125q109 0 175 -58t66 -142q0 -27 -4 -51.5t-10 -49.5q-25 -63 -74 -106l625 2q-31 23 -52.5 82t-21.5 125q0 240 221 409q178 131 430 172q45 6 92 6q188 0 330 -116 q137 -113 137 -287z" />
<glyph unicode="&#xd3e;" horiz-adv-x="1007" d="M1006 518q0 -168 -195 -344q-195 -172 -389 -172q-147 0 -238 88q-76 78 -75 162q4 33 65 80q18 14 62 43q0 -135 90 -195q80 -51 221 -51q131 0 223 100q96 102 96 230q0 143 -108 229q-98 80 -250 80q-121 0 -205 -45q-29 -16 -55.5 -37.5t-46.5 -52.5q-20 8 -21 24 q0 47 133 138q141 90 224 108q37 6 71 6q158 0 277 -112q121 -111 121 -279z" />
<glyph unicode="&#xd3f;" horiz-adv-x="432" d="M418 993q-12 -70 -19 -112q-10 -66 -16 -109t-10 -74.5t-8.5 -59.5t-8.5 -65q0 -74 -3 -157.5t-7 -184.5q-4 -68 -12 -190q0 -16 -2 -28.5t-27 -16.5q-29 -6 -45 20q-4 4 -6 13q4 53 5 98t3 80q4 92 10.5 173t12.5 152v52q0 20 2 44.5t6 57.5t12 86q4 35 11.5 83 t17.5 108q4 35 -9.5 66.5t-40 56t-64.5 40t-81 21.5h-37q-78 0 -129 -30t-51 -77q0 -18 10 -43q-4 -10 -8 -14q-16 -12 -41 -4q-25 27 -24 82q0 86 69 160q80 84 207 84q31 0 66 -7q123 -18 176 -84q47 -59 47 -149q0 -35 -6 -72z" />
<glyph unicode="&#xd40;" horiz-adv-x="454" d="M442 1004q-10 -53 -18 -95.5t-12 -74.5q-31 -197 -31 -304q0 -66 -2 -142.5t-6 -168.5q-2 -31 -5 -75t-8 -99q0 -14 -2 -25.5t-26 -15.5q-31 -6 -41 19l-1 3t-3 7q10 100 12 164q8 102 11 175.5t3 121.5l52 487q0 102 -25 152q-35 66 -102 65q-18 0 -23 -2q31 -29 31 -63 q0 -51 -51 -91q-47 -41 -103 -59q-23 -10 -47.5 -14t-56.5 -8q-53 -4 -91 17t-38 64q0 47 49 109q59 76 150.5 116t174.5 40q86 0 142 -33q41 -25 58.5 -62.5t17.5 -99.5q0 -23 -3.5 -55.5t-5.5 -52.5zM147 1069q6 8 7 21q0 20 -11.5 35.5t-28 26.5t-35 15t-32.5 2 q-70 0 -90 -30q-8 -10 -8 -27q0 -35 51 -53q2 0 28.5 -4t41.5 -4q52 0 77 18z" />
<glyph unicode="&#xd41;" horiz-adv-x="675" d="M649 797q14 -23 15 -62q0 -27 -29 -96.5t-88 -185.5q-55 -111 -55 -189q0 -10 1 -23.5t3 -29.5q4 -33 53 -100q51 -66 51 -117q0 -102 -106 -219q-106 -109 -187 -109q-92 0 -145 43t-53 121q0 80 84 193q78 98 122 118l17 -49q-102 -45 -103 -137q0 -53 36 -101.5 t89 -58.5q41 -8 88 23q47 29 47 67q0 12 -8 29q-14 31 -75 109q-39 61 -39 108q0 72 49 186q20 41 38.5 81t39.5 81q45 113 45 166q0 43 -16.5 76t-63.5 55q-29 12 -64 12q-47 0 -83 -21.5t-56 -74.5q-23 -23 -37 -22q-23 0 -22 28q0 14 12 27q14 29 40.5 57.5t67.5 59.5 q94 68 183 67h30q8 -4 13.5 -5t9.5 -3q37 -12 59 -35q6 -8 14.5 -25t22.5 -44z" />
<glyph unicode="&#xd42;" horiz-adv-x="802" d="M784 25q-16 -100 -155 -222q-106 -90 -174 -118q-47 -16 -105 -17q-82 0 -146.5 42t-99.5 124q8 29 15 41q20 43 63 64q29 -84 94.5 -123t151.5 -39q59 0 102 18q66 25 110 86.5t44 136.5q0 47 -10 86t-41 56q0 -119 -80 -207q-80 -98 -145 -98q-66 0 -106 52t-40 122 q0 88 70 176q53 68 108 90q0 57 41 168q31 86 31 170q0 117 -49 141q-27 10 -43 10q-27 0 -47.5 -15t-34.5 -54q-6 -12 -11 -14.5t-10 -4.5q-20 0 -12 33q14 53 64 107q57 61 123 61h26q10 -4 13.5 -5t7.5 -3q33 -12 55 -37q16 -20 32.5 -56t16.5 -65q0 -49 -53 -145 q-51 -94 -51 -172q0 -23 3 -44.5t13 -45.5q35 0 69.5 -8.5t59.5 -24.5q109 -68 109 -201v-33q-4 -10 -5.5 -18t-3.5 -14zM528 76q-6 16 -16 37.5t-27 50.5q-10 23 -18 41t-12 35q-41 -12 -61.5 -47t-20.5 -80q0 -55 24.5 -96.5t65.5 -51.5q35 -6 55.5 13.5t20.5 56.5 q-1 23 -11 41z" />
<glyph unicode="&#xd43;" horiz-adv-x="772" d="M768 23q0 -135 -168 -254q-141 -104 -238 -105q-100 0 -188 62q-84 61 -84 139q0 23 14 55q39 72 102.5 106.5t135.5 34.5q74 0 131 -34.5t74 -92.5q-10 -16 -10 -22q-37 -55 -82 -68q0 43 -45 86q-45 39 -97 39q-61 0 -96 -9t-35 -44q0 -47 68 -98q70 -49 156 -49 q100 0 174 61q78 63 77 139q0 20 -15 62.5t-50 103.5q-53 100 -83 156.5t-36 73.5q-35 72 -50 130t-15 103v127q0 63 14 135q27 45 82 45q43 0 69 -16q-14 -14 -26 -92q-8 -41 -10 -75t-2 -67q0 -23 1 -37t1 -24q8 -37 49 -131t119 -246q63 -126 63 -194z" />
<glyph unicode="&#xd44;" horiz-adv-x="772" d="M768 23q0 70 -63 194q-78 154 -119 247t-49 130q0 10 -1 24.5t-1 36.5q0 33 2 67t10 75q12 78 26 92q-29 16 -69 16q-55 0 -82 -45q-14 -66 -14 -135v-127q0 -45 15 -103.5t50 -129.5q6 -16 36 -72.5t83 -157.5q35 -61 50 -102t15 -62q0 -74 -77 -139q-74 -61 -174 -61 q-86 0 -156 49q-68 51 -68 98q0 35 35 44t96 9q51 0 97 -39q45 -43 45 -86q45 12 82 68q0 6 10 23q-16 57 -73.5 90.5t-131.5 33.5q-72 0 -135.5 -33.5t-102.5 -105.5q-14 -31 -14 -55q0 -78 84 -139q88 -61 188 -62q96 0 238 105q168 119 168 252zM262 -154h-18v80 q4 6 21.5 12.5t25.5 6.5q20 0 31 -19q8 18 32 19q35 0 35 -33v-66h-18v58q0 25 -21 24q-25 0 -24 -28v-54h-19v60q0 23 -18 22q-27 0 -27 -32v-50z" />
<glyph unicode="&#xd46;" horiz-adv-x="1130" d="M340 164q4 -2 33 -2q74 0 143 41q76 39 98 86q14 20 15 55q0 25 -10.5 49.5t-24.5 43t-31.5 30.5t-32.5 14q-29 6 -45 6q-70 0 -131 -61q-53 -63 -45 -102q-12 2 -18 6q-18 12 -19 47q0 4 1 12t3 19q47 111 133.5 164t176.5 53q61 0 98 -31q49 -47 49 -117 q0 -47 -19.5 -103.5t-49.5 -111.5q-59 -117 -151.5 -188.5t-203.5 -71.5q-92 0 -147.5 71.5t-55.5 194.5v27q2 12 3.5 20.5t1.5 12.5q23 180 208 370q209 213 443 213q98 0 189 -43t134 -129q45 -78 45 -221q0 -125 -155 -305q-66 -76 -120 -124t-101 -73q-18 -6 -27 -6 q-23 0 -29 23q-12 33 41 45q84 72 123 119q125 150 125 307q0 193 -211 246q-31 6 -40 7t-34 1q-164 0 -313 -101q-168 -113 -168 -272q-2 -8 -2 -23v-14q0 -78 31 -127t90 -57z" />
<glyph unicode="&#xd47;" horiz-adv-x="843" d="M838 733q0 -66 -127 -174q-141 -119 -248 -119q-63 0 -109.5 21.5t-99.5 68.5q-12 -12 -19.5 -46.5t-7.5 -75.5q0 -59 11.5 -103.5t37.5 -60.5q43 43 97.5 79.5t124.5 59.5q31 14 88 14q72 0 125 -31.5t53 -84.5q0 -16 -2 -21q-16 -92 -115 -176q-96 -84 -203 -84 q-141 0 -239 86q-94 90 -94 233q-2 6 -2 17v10q0 186 170 375q172 190 352 190q59 0 125 -39q82 -49 82 -139zM721 666q0 39 -45 75q-43 37 -101 37q-86 0 -151.5 -17.5t-112.5 -76.5q33 -59 98.5 -93t141.5 -34q66 0 116 30t54 79zM651 197q0 41 -49 69.5t-108 28.5 q-51 0 -100.5 -26.5t-82.5 -67.5q29 -35 75 -56.5t99 -29.5q6 -2 37 -2q55 0 92 18.5t37 65.5z" />
<glyph unicode="&#xd48;" horiz-adv-x="2164" d="M340 158q4 -2 33 -2q74 0 143 41q76 39 98 86q14 20 15 55q0 25 -10.5 49.5t-24.5 43t-31.5 30.5t-32.5 14q-29 6 -45 6q-70 0 -131 -61q-53 -63 -45 -103q-12 2 -18 7q-18 12 -19 47q0 4 1 12t3 18q47 111 133.5 164t176.5 53q61 0 98 -30q49 -47 49 -117 q0 -47 -19.5 -103.5t-49.5 -111.5q-59 -117 -151.5 -188.5t-203.5 -71.5q-92 0 -147.5 71.5t-55.5 194.5v27q2 12 3.5 20t1.5 13q23 180 208 370q209 213 443 213q98 0 189 -43t134 -129q45 -78 45 -221q0 -125 -155 -305q-66 -76 -120 -124t-101 -73q-18 -6 -27 -6 q-23 0 -29 23q-12 33 41 45q84 72 123 118q125 150 125 308q0 193 -211 245q-31 6 -40 7.5t-34 1.5q-164 0 -313 -101q-168 -113 -168 -272q-2 -8 -2 -23v-14q0 -78 31 -127t90 -57zM1366 160q4 -2 33 -2q74 0 143 41q76 39 98 86q14 20 15 55q0 25 -10.5 49.5t-24.5 43 t-31.5 30.5t-32.5 14q-29 6 -45 6q-70 0 -131 -61q-53 -63 -45 -103q-12 2 -18 7q-18 12 -19 47q0 4 1 12t4 18q47 111 133 164.5t176 53.5q61 0 98 -31q49 -47 49 -117q0 -47 -19.5 -103.5t-49.5 -111.5q-59 -117 -151.5 -188.5t-203.5 -71.5q-92 0 -147 71.5t-55 194.5v27 q2 12 3 20t1 13q23 180 209 370q209 213 442 213q98 0 189 -43t134 -129q45 -78 46 -221q0 -125 -156 -305q-66 -76 -120 -124t-101 -73q-18 -6 -27 -6q-23 0 -29 23q-12 33 41 45q84 72 123 119q125 150 125 307q0 193 -211 245q-31 6 -40 7.5t-33 1.5q-164 0 -314 -101 q-168 -113 -168 -272q-2 -8 -2 -23v-14q0 -78 31 -127t90 -57z" />
<glyph unicode="&#xd4a;" horiz-adv-x="2084" d="M336 162q4 -2 33 -2q74 0 143 41q76 39 98 86q14 20 15 55q0 25 -10.5 49.5t-25 43t-31.5 30.5t-32 14q-29 6 -45 6q-70 0 -131 -61q-53 -63 -45 -102q-12 2 -18 6q-18 12 -19 47q0 4 1 12t3 19q47 111 133.5 164t176.5 53q61 0 98 -31q49 -47 49 -117 q0 -47 -19.5 -103.5t-50.5 -111.5q-59 -117 -151 -188.5t-203 -71.5q-92 0 -147.5 71.5t-55.5 194.5v27q2 12 3 20.5t1 12.5q23 180 209 370q209 213 443 213q98 0 189 -43t134 -129q45 -78 45 -221q0 -125 -155 -305q-66 -76 -120 -124t-101 -73q-18 -6 -27 -6 q-23 0 -29 23q-12 33 41 45q84 72 123 119q125 150 125 307q0 193 -211 246q-31 6 -40 7t-34 1q-164 0 -313 -101q-168 -113 -168 -272q-2 -8 -2 -23v-14q0 -78 31 -127t90 -57zM2081 516q0 -168 -195 -344q-195 -172 -389 -172q-147 0 -237 88q-76 78 -76 162q4 33 65 80 q18 14 62 43q0 -135 90 -195q80 -51 221 -51q131 0 223 100q96 102 97 230q0 143 -109 229q-98 80 -250 80q-121 0 -205 -45q-29 -16 -55.5 -37.5t-46.5 -52.5q-20 8 -21 24q0 47 134 138q141 90 223 108q37 6 71 6q158 0 277 -112q121 -111 121 -279z" />
<glyph unicode="&#xd4b;" horiz-adv-x="2093" d="M934 729q0 -66 -143 -172q-156 -119 -283 -119q-72 0 -125 21.5t-113 68.5q-14 -14 -22 -48t-8 -77q0 -59 13 -102t42 -57q49 41 111.5 77.5t140.5 59.5q20 8 45.5 10t54.5 2q82 0 142.5 -30.5t60.5 -83.5q0 -18 -2 -23q-18 -90 -129 -174q-113 -82 -232 -82 q-160 0 -272 84q-109 90 -109 233q-2 4 -2 15v12q0 186 193 373q195 188 401 188q72 0 144 -37q92 -53 92 -139zM803 662q0 37 -53 77q-53 35 -113 35q-98 0 -173 -18.5t-128 -75.5q37 -59 111.5 -92t160.5 -33q37 0 71 8t60.5 21.5t44 33t19.5 44.5zM723 193q0 23 -15.5 41 t-41 31.5t-58.5 20.5t-65 7q-57 0 -113.5 -26.5t-93.5 -67.5q33 -35 85 -56.5t114 -29.5q6 -2 40 -2q63 0 105.5 18.5t42.5 63.5zM2091 516q0 -168 -195 -344q-195 -172 -389 -172q-147 0 -237 88q-76 78 -76 162q4 33 66 80q18 14 61 43q0 -135 90 -195q80 -51 221 -51 q131 0 223 100q96 102 97 230q0 143 -109 229q-98 80 -250 80q-121 0 -204 -45q-29 -16 -55.5 -37.5t-47.5 -52.5q-20 8 -20 24q0 47 133 138q141 90 223 108q37 6 72 6q158 0 276 -112q121 -111 121 -279z" />
<glyph unicode="&#xd4c;" horiz-adv-x="2342" d="M340 164q4 -2 33 -2q74 0 143 41q76 39 98 86q14 20 15 55q0 25 -10.5 49.5t-24.5 43t-31.5 30.5t-32.5 14q-29 6 -45 6q-70 0 -131 -61q-53 -63 -45 -102q-12 2 -18 6q-18 12 -19 47q0 4 1 12t3 19q47 111 133.5 164t176.5 53q61 0 98 -31q49 -47 49 -117 q0 -47 -19.5 -103.5t-49.5 -111.5q-59 -117 -151.5 -188.5t-203.5 -71.5q-92 0 -147.5 71.5t-55.5 194.5v27q2 12 3.5 20.5t1.5 12.5q23 180 208 370q209 213 443 213q98 0 189 -43t134 -129q45 -78 45 -221q0 -125 -155 -305q-66 -76 -120 -124t-101 -73q-18 -6 -27 -6 q-23 0 -29 23q-12 33 41 45q84 72 123 119q125 150 125 307q0 193 -211 246q-31 6 -40 7t-34 1q-164 0 -313 -101q-168 -113 -168 -272q-2 -8 -2 -23v-14q0 -78 31 -127t90 -57zM2318 475q-29 -86 -69 -147q-27 -35 -52.5 -55.5t-58.5 -45.5q-37 -43 -80 -80.5t-94 -66.5 q-43 -29 -74.5 -46.5t-56.5 -21.5q-20 -4 -33 -4h-26q-96 0 -162 39q-78 35 -90 103q-2 12 0 24t6 23q16 31 63 49q12 -53 80 -99q68 -43 137 -43q20 0 25 2q139 18 254 125q70 61 106.5 121t47.5 140q2 10 2 26v27q0 109 -48 172q-57 76 -151 76q-82 0 -138.5 -45.5 t-72.5 -122.5v-54q0 -10 1 -26.5t3 -42.5q0 -20 8 -25.5t15 -9.5q-6 -45 -45 -45q-37 0 -50 37l-8 198q-12 53 -51 88t-96 35q-70 0 -115 -53t-45 -133q0 -35 13.5 -58.5t47.5 -50.5q0 -20 -2 -22q-10 -25 -34 -25q-29 18 -45.5 63.5t-16.5 98.5q-2 6 -2 23q0 113 64 196 q66 82 153 82q92 0 133 -37t64 -123q33 82 102.5 123t149.5 41q49 0 94 -16q82 -35 127 -107.5t45 -169.5q0 -61 -25 -137z" />
<glyph unicode="&#xd4d;" horiz-adv-x="131" d="M317 1370q6 -31 7 -59q0 -33 -13 -72q-29 -96 -157 -158q-115 -55 -244 -55q-133 0 -197 68q-51 51 -51 145q0 47 16 100q25 16 54.5 25.5t52.5 9.5q37 0 51 -8q-8 -18 -14 -50t-6 -54q0 -111 71 -148q33 -20 88 -20q82 0 142 51q27 20 40 57t13 74t-2 43q-6 14 -6 22 q12 8 20 11.5t13 5.5q45 18 79 18q20 0 43 -6z" />
<glyph unicode="&#xd57;" horiz-adv-x="1050" d="M1022 475q-16 -45 -32.5 -82t-39.5 -67q-27 -35 -52.5 -55.5t-57.5 -47.5q-37 -43 -80 -81t-96 -68q-43 -29 -75 -46.5t-57 -21.5q-20 -4 -32 -4h-27q-98 0 -164 39q-80 37 -92 104q-2 12 0 24.5t6 23.5q18 31 66 51q12 -53 80 -101q68 -43 139 -43q20 0 24 2 q137 18 256 125q70 63 107 123t47 142q2 10 2 26v27q0 111 -47 176q-57 76 -152 76q-84 0 -140 -45t-73 -125v-54q0 -10 1.5 -27.5t3.5 -43.5q0 -20 8 -25.5t14 -9.5q-6 -45 -45 -45q-37 0 -51 37l-8 200q-12 55 -51 90t-97 35q-72 0 -117 -54t-45 -134q0 -35 13.5 -59.5 t48.5 -51.5q0 -20 -2 -22q-10 -25 -35 -25q-29 18 -45 63.5t-16 100.5q-2 6 -3 23q0 115 64 198q66 84 156 84q92 0 134 -36.5t64 -125.5q33 82 102.5 124t151.5 42q49 0 94 -16q84 -35 129.5 -108.5t45.5 -172.5q0 -63 -25 -139z" />
<glyph unicode="&#xd60;" horiz-adv-x="1302" d="M1298 770q0 -59 -73 -131q-84 -82 -209 -137q29 -29 44 -43.5t17 -18.5q37 -47 37 -102q0 -76 -131 -191q-170 -145 -412 -145q-172 0 -288 74q-129 82 -129 219q0 43 24 80q8 14 28.5 34.5t51.5 49.5q-35 16 -62.5 31.5t-43.5 33.5q-41 45 -41 105q0 78 112 174 q131 109 273 108q78 0 149 -39q53 -31 53 -75q0 -63 -71 -135q-27 -25 -64 -52.5t-88 -58.5l146 -10h114q31 2 56 6q-10 31 -11 57q0 106 109 191q113 84 227 84q86 0 134 -25t48 -84zM569 713q0 29 -43 51t-104 22q-53 0 -110.5 -16t-88.5 -45q-4 -47 40 -81t130 -34 q37 0 99 31q77 37 77 72zM1153 692q0 35 -72 58q-6 2 -15 3t-22 5q-78 0 -111.5 -9.5t-33.5 -50.5q0 -66 57 -125q43 10 74 18.5t51 16.5q72 31 72 84zM997 260q0 41 -51 98q-53 59 -92 72q-41 -6 -99.5 -13t-117.5 -7q-41 0 -77 1t-66 3q-29 2 -74 6t-107 14q-4 -6 -8 -14 t-8 -19q-16 -37 -16 -69q0 -121 155 -170q111 -35 279 -35q133 0 217 51q65 41 65 82zM457 342q25 0 45 -17.5t20 -45.5q0 -29 -18.5 -46.5t-46.5 -17.5q-29 0 -47.5 17.5t-18.5 46.5t19.5 46t46.5 17zM735 342q27 0 46.5 -17.5t19.5 -45.5q0 -29 -18.5 -46.5t-47.5 -17.5 t-47 17.5t-18 46.5t20 46t45 17z" />
<glyph unicode="&#xd61;" horiz-adv-x="2408" d="M2404 418q0 -117 -84 -238q-41 -59 -98 -113.5t-115 -84.5q-12 -8 -47 -34t-83 -54.5t-105 -55t-115 -37.5q-2 0 -18.5 1t-39 5.5t-46 11.5t-37.5 17q-18 12 -7 21.5t11 13.5q0 2 17.5 -2t44 -6t58.5 0t62 14q20 8 63.5 32.5t88.5 52.5t84 52.5t51 34.5q47 35 81 68 t64 82q25 47 43.5 94t18.5 100q0 100 -82 185q-92 92 -207 92q-27 0 -57 -6q66 -47 100 -119q16 -29 22.5 -49.5t6.5 -32.5q0 -205 -197 -340q-78 -51 -136 -78t-106 -27q-82 0 -149 60q-102 80 -102 219q0 104 112 223q86 94 158 119q-14 2 -22.5 3t-16.5 1q-59 6 -72 6 q-27 0 -30 -2q-213 -27 -287 -190q-18 -100 -34.5 -199.5t-31.5 -198.5q-41 -41 -82 -41q-23 0 -32 21q0 86 1 133t3 64q8 47 13 97t13 99q-4 23 -6 46.5t-4 45.5q-25 109 -104 176q-109 96 -314 97q-121 0 -235 -70q-135 -80 -185 -209q86 82 175.5 118t205.5 36 q123 0 223.5 -76t100.5 -186q0 -135 -135 -263q-147 -145 -352 -145q-154 0 -248 92q-96 96 -97 232q0 246 238 428q195 152 391 151q213 0 338 -102q123 -96 123 -256q94 100 205 155q129 63 274 64q78 0 154 -29q6 -2 12 -5l14 -7q41 10 88.5 23.5t120.5 13.5 q166 0 253 -92t87 -252zM1956 344q0 119 -90 197q-70 66 -115 65q-55 -10 -135 -74q-90 -74 -98 -161q-2 -2 -2 -27q0 -90 55 -146.5t153 -56.5q6 2 17 2h10q70 6 137.5 67.5t67.5 133.5zM825 317q0 90 -88 160q-88 72 -198 82h-31h-25q-100 0 -157 -35q-16 -6 -41 -37 q-10 -37 -11 -47q0 -37 43 -55q-20 -18 -43.5 -23.5t-33.5 -5.5q-6 2 -13 2h-8h-12q27 -117 132 -179t253 -62q70 0 147 61q86 69 86 139z" />
<glyph unicode="&#xd62;" horiz-adv-x="1019" d="M270 -354v8q14 33 39 33q23 -2 88 26q45 -18 68.5 -31.5t33 -25.5t8.5 -26.5t-1 -37.5q-31 -53 -31 -59q2 -8 -9 -19.5t-69 -11.5q-49 0 -80.5 27t-31.5 63q-12 12 -15 23q-4 20 -4 25q0 2 4 6zM1356 -258v-14q0 -59 -19.5 -108.5t-52.5 -94.5q-31 -23 -92 -43 q-18 -4 -40 -10.5t-48 -10.5q-23 6 -42.5 12.5t-35.5 14.5q-43 14 -68 37q-104 68 -86 135q27 70 132 117q106 18 217 0q78 -15 135 -35zM1323 -199q-29 8 -84 15q-188 29 -315 -13q-104 -43 -136 -129q-27 -86 37 -149q8 -8 15.5 -17.5t17.5 -17.5q39 -51 89 -69.5 t104 -22.5h4q12 0 16 -2q12 -2 24.5 -3t24.5 -1q14 0 24.5 1t20.5 3q43 2 76 17.5t57.5 36t39 38.5t18.5 29q33 61 56.5 119.5t23.5 117.5q0 90 -84 170q-88 76 -236 76q-72 0 -130 -10t-105 -39q-90 -51 -150 -139q0 68 -80 127q-59 49 -155 49q-111 0 -201 -109 q-80 -102 -80 -225q0 -4 2 -6q-12 -29 -12 -56q0 -49 24 -94q16 -29 41 -43q29 -43 66 -63q16 0 37 16l2 2q6 -2 14 -2q39 -2 73 12.5t59.5 40t38.5 60.5t11 71q0 78 -53 131.5t-129 53.5q-45 0 -86 -23h-8q8 10 15 22.5t16 24.5q53 72 151 72q104 0 137 -63q29 -47 29 -168 q0 -47 -1 -99.5t-1 -103.5q0 -53 47 -43q25 6 47.5 24.5t22.5 38.5q-6 6 -9.5 35t-3.5 70v69q0 14 1.5 26.5t3.5 23.5q0 74 65 127q78 66 221 81q6 2 33 3q123 0 207 -66q24 -9 47 -27z" />
<glyph unicode="&#xd63;" horiz-adv-x="1259" d="M1169 -315q0 -39 -41 -74q-43 -37 -79 -39h-9q-6 0 -8 -2q-59 0 -91 31.5t-32 83.5q0 14 2 16q2 49 58 90q43 33 80 43q29 0 67 -39q53 -40 53 -110zM504 -330q0 -41 -51 -80q-45 -33 -86 -32q-86 0 -149.5 34.5t-78.5 100.5h21q4 0 18.5 3t26.5 13q-27 12 -27 31 q0 8 8 27q14 16 25 20q33 18 90 18h35q59 -2 115 -45q53 -41 53 -90zM1432 -274q0 92 -50.5 143t-150.5 51q-43 0 -69.5 -7t-53.5 -13l-14 8q-45 16 -90 16t-83 -9t-79 -28q-59 -29 -121 -86q0 90 -72 144q-78 55 -198 55q-117 0 -232 -84q-139 -102 -139 -242 q0 -78 57 -129q27 -29 65 -40t81 -11q125 0 206 82q80 68 80 145q0 61 -57 105q-61 43 -133 43q-68 0 -121 -20.5t-104 -65.5q35 78 108 117q70 41 141 41q117 0 183 -56q47 -37 63 -98q0 -12 1 -26.5t3 -26.5q-4 -29 -7 -55.5t-7 -55.5q-2 -8 -2 -108q2 -14 18 -15 q20 0 50 25q6 55 16 110.5t22 114.5q43 92 168 107h31h10q8 0 19 -2q6 0 10 -1t12 -1q-43 -16 -92 -68q-68 -72 -67 -125q0 -80 61 -125q41 -35 88 -35q49 0 143 60q115 78 115 192q0 16 -16 45q-25 45 -62 68q12 2 21.5 3t13.5 1q70 0 123 -53q47 -47 47 -103 q0 -31 -10 -57.5t-25 -52.5q-20 -27 -40.5 -45.5t-47.5 -38.5q-6 -4 -28.5 -18.5t-49 -31t-52 -29.5t-38.5 -18q-16 -8 -34.5 -9t-35 1t-26.5 4t-10 0t-7.5 -7t5.5 -13q20 -12 50 -16.5t32 -4.5q35 6 68.5 21.5t62 32t49 31t26.5 18.5q35 18 68 49t57 63q50 68 50 134z" />
<glyph unicode="&#xd66;" horiz-adv-x="1216" d="M1217 514q0 -176 -170 -346q-168 -168 -371 -168q-207 0 -377 102q-193 119 -193 304q0 72 35 146.5t88 131.5q-35 -76 -34 -143q0 -170 184 -293q156 -104 297 -105q162 0 272 62q119 68 137 188q2 18 3.5 30.5t1.5 20.5q0 131 -97 215q-109 90 -297 91q-100 0 -190 -29 q-115 -41 -178 -137q-6 -23 6 -49q31 -74 31 -76q0 -14 -15 -27q-31 -12 -53.5 27t-22.5 104q0 70 34 139.5t106 116.5q82 55 149 72q76 16 170 16q217 0 350.5 -108.5t133.5 -284.5z" />
<glyph unicode="&#xd67;" horiz-adv-x="1253" d="M440 121v342q0 211 103.5 326.5t308.5 115.5q197 0 299 -129q92 -117 92 -317v-457h-944v-27h141l148 -2v-96h-29h-18t-21 -2q-25 -2 -41 -3t-26 -1q-340 -10 -342 127q-3 119 329 123zM1112 121v289q0 184 -43 264q-57 113 -225 112q-274 0 -275 -333v-332h543z" />
<glyph unicode="&#xd68;" horiz-adv-x="1206" d="M1204 0h-645v90q23 10 39 18.5t27 16.5q68 55 67 147q0 49 -18.5 90t-49 72t-73.5 47.5t-92 16.5q-98 0 -168 -59.5t-70 -157.5t55 -154q8 -8 22.5 -17.5t35.5 -19.5l-64 -86q-80 29 -125 111q-41 78 -41 164q0 147 113 239q104 86 256 86q141 0 244 -92 q102 -90 102 -231q0 -111 -45 -162h428z" />
<glyph unicode="&#xd69;" horiz-adv-x="1744" d="M1743 0h-475q2 8 2 27v49v166v55v27q0 14 -2 26l-4 105q-4 145 -60 231q-68 106 -203 107q-90 0 -139 -72q-43 -66 -43 -158v-563h-129v563q0 98 -52 163t-151 65q-125 0 -194 -111q-61 -96 -62 -225q0 -117 56.5 -218.5t148.5 -168.5l-90 -78q-113 72 -176.5 193.5 t-63.5 262.5q0 193 91 320q102 139 292 139q174 0 267 -155q82 156 250 155q160 0 260 -100q70 -66 90 -184q27 -145 24 -535h363v-86z" />
<glyph unicode="&#xd6a;" horiz-adv-x="1099" d="M1047 352q0 123 -53.5 246t-209.5 270q35 98 35 228l-137 47q-10 -180 -31 -244q10 2 -10 2h-68q-211 0 -348 -162q-119 -137 -119 -309q0 -281 7 -430h92q37 0 35 205q-12 104 -13 221q0 129 80 244q88 123 213 123q27 0 31 2q61 23 20 -15q-6 -84 -63 -192 q-61 -117 -62 -236q0 -137 70 -243q82 -113 213 -113q143 0 234 104q84 102 84 252zM911 354q0 -254 -184 -254q-80 0 -127 90q-37 70 -37 162q0 88 53 201q53 102 113 180q182 -152 182 -379z" />
<glyph unicode="&#xd6b;" horiz-adv-x="1325" d="M1157 -147q55 246 55 434q0 301 -141 428q-104 98 -287 98q-94 0 -168 -20q-193 -47 -297 -174t-104 -330q0 -135 66 -301q80 -201 192 -219q8 -2 32.5 -3.5t65.5 -5.5q270 -18 385 146q45 104 45 182q0 139 -170 139h-149v113h145q166 0 166 127q0 158 -217 158 q-162 0 -250 -131q-78 -119 -77 -291q0 -41 8 -93.5t24 -117.5q14 -61 31 -105l-94 -49q-80 211 -80 359q0 215 111 366q123 164 323 164q143 0 229 -53q111 -66 111 -201q0 -141 -115 -182q119 -43 113 -209q-8 -178 -88 -260q-135 -143 -453 -154q-59 0 -98 8 q-125 29 -238 191q-125 176 -124 393q0 106 30 209q23 84 78 155.5t139 137.5q193 141 445 145q133 0 311 -86q213 -203 209 -563q-4 -170 -68 -405h-96z" />
<glyph unicode="&#xd6c;" horiz-adv-x="2015" d="M2011 463q0 -174 -61 -268q-182 -276 -596 -433q-29 -10 -72 -25.5t-96 -33.5l-86 80q59 27 147 66.5t207 93.5q315 147 381 305q45 109 45 211q0 332 -254 332q-88 0 -139 -76q-45 -63 -45 -160v-555h-129v555q0 49 -15.5 93t-44 76t-67.5 51.5t-88 19.5 q-111 0 -174 -56q-70 -57 -70 -168v-571h-129v561q0 98 -60.5 164t-158.5 66q-139 0 -209 -101q-59 -90 -59 -231q0 -135 49 -227.5t149 -161.5l-86 -74q-113 74 -176 209q-35 70 -51.5 130t-16.5 128q0 186 105 313q111 135 295 135q199 0 293 -155q82 147 293 147 q106 0 172.5 -34.5t115.5 -123.5q72 158 267 158q182 0 278 -133q86 -121 86 -307z" />
<glyph unicode="&#xd6d;" horiz-adv-x="804" d="M719 432q10 109 -39 199q-61 115 -168 155l-43 17q41 -29 55 -101q6 -29 8.5 -58.5t-2.5 -57.5q-6 -84 -51 -137q-47 -66 -131 -66q-98 0 -151 78q-45 66 -45 166q0 117 55 194q63 88 184 88q14 0 26.5 -1t28.5 -3q160 -27 261 -155q94 -123 94 -279q0 -8 -1 -21.5 t-3 -29.5q-18 -215 -144 -322q-86 -74 -188 -73q-223 0 -359 245l56 84q31 -86 119 -149q88 -61 184 -62q111 0 184 95q60 77 70 194zM324 494q57 -10 93 29.5t42 94.5q2 57 -21 103q-29 53 -86 61q-53 6 -90 -34q-31 -37 -36 -91.5t18 -101.5q27 -55 80 -61z" />
<glyph unicode="&#xd6e;" horiz-adv-x="1515" d="M1503 -125q-10 -55 -47 -98q-84 -104 -289 -127q-117 -14 -315 131v147l57 -37q168 -111 246 -106q190 8 223 143v72h-690v94q168 100 168 340q0 143 -84 246q-90 109 -231 108q-143 0 -232 -110q-82 -100 -82 -250q0 -233 215 -358l-67 -80q-270 135 -271 440 q0 197 125 334q127 139 320 139q195 0 317 -135q117 -133 117 -330q0 -76 -29 -172q-33 -98 -88 -147h514v786h129z" />
<glyph unicode="&#xd6f;" horiz-adv-x="1634" d="M1634 352q0 125 -57 260q-55 141 -375 297q6 113 12 320h-116q-16 0 -17 -324l-6 -8q0 14 -65 14q160 -6 61 -6q-195 0 -283 -149q-96 147 -262 147q-197 0 -317 -164q-102 -139 -103 -309q0 -291 181 -446l96 53q-156 106 -156 381q0 131 72 246q82 129 209 129 q92 0 150.5 -64.5t58.5 -157.5v-571h129v571q0 111 66.5 171.5t177.5 60.5q23 0 51 -4t63 -13q6 -2 23 -6q6 -2 -33 6.5t-125 26.5q-4 -55 -6 -101t-2 -114q2 -68 -2 -128t0 -134q-4 -135 20 -234q113 -106 260 -106q135 0 220 110q75 101 75 246zM1509 350q0 -90 -41 -162 q-49 -90 -213 -67q-80 -23 -79 235q0 383 6 408q240 -78 282 -197q45 -115 45 -217z" />
<glyph unicode="&#xd70;" horiz-adv-x="1900" d="M1892 868q0 -59 2 -108t4 -92q0 -59 -4 -115.5t-22 -140.5q-27 -115 -186 -265q-180 -156 -340 -155q-164 0 -273 51q-147 72 -190 258q-25 -115 -101 -199q-90 -98 -202 -98q-37 0 -58.5 6t-36 15.5t-27 18.5t-28.5 17l-1 -16t-3 -44t-5 -62.5t-9 -71.5 q-6 -41 -17.5 -81t-21.5 -69q-10 -31 -52 -57.5t-89.5 -42.5t-85 -21.5t-40.5 11.5l14 8q13 8 33.5 20.5t45 29t45.5 34.5q23 20 38 42.5t15 33.5q0 25 5 54.5t9 64.5q4 51 8.5 106t7.5 100t5 76t0 35q-8 31 -12.5 63.5t-4.5 69.5q0 160 105 342q104 184 201 209 q14 10 32 10q14 0 22.5 -9t8.5 -19q0 -8 -10 -25l-10 -10q-82 -29 -154 -152q-39 -61 -62.5 -124.5t-31.5 -135.5q-2 -16 -3 -35.5t-1 -27.5q0 -102 48 -154.5t158 -52.5q86 0 158 90q72 88 72 199q0 66 1 119t6 99t13.5 87t24.5 82q12 16 42 22t58 6q16 0 29.5 -1t24.5 -3 q-39 -168 -39 -315q0 -256 153 -348q47 -29 114.5 -42.5t156.5 -13.5q41 0 78.5 7.5t72.5 23.5q88 39 113 117q23 53 31 125.5t8 152.5q0 45 -1 86t-1 82q0 66 10 103q20 18 49 29.5t53 11.5q20 -1 47 -11z" />
<glyph unicode="&#xd71;" horiz-adv-x="1722" d="M1714 498q0 -186 -104 -342q-51 -78 -108.5 -117t-104.5 -62q-16 -6 -67.5 -28.5t-119 -50t-143.5 -55t-139 -46.5q-66 -18 -108 -13t-42 13q0 2 41 19.5t103.5 41t135 50t136 50.5t105.5 41t44 19q47 20 90.5 57.5t79.5 78.5q96 102 97 284q0 115 -107 207 q-115 98 -272 98q-33 0 -39 -2q-186 -18 -293 -123q-90 -90 -90 -188q-2 -35 -3 -79t-1 -97q0 -133 14 -148q0 -27 -28.5 -56.5t-61.5 -35.5q-27 -6 -44 11.5t-17 52.5q0 70 1 146.5t3 142.5q0 182 -39 251q-49 92 -178 93q-127 0 -203 -111q-78 -109 -78 -260 q0 -115 55 -190q49 -66 103 -72q8 -6 8 -19q0 -20 -23.5 -41.5t-52.5 -21.5q-61 33 -100 106q-57 106 -58 285q0 180 109 338q111 156 262 156q129 0 209 -68q100 -86 100 -192q78 133 195 206q131 80 311 80q195 0 310 -121q112 -118 112 -288z" />
<glyph unicode="&#xd72;" horiz-adv-x="2619" d="M2013 461q-23 -176 -176 -318q-131 -119 -260 -137q-23 0 -43.5 -1t-40.5 -1q-51 0 -102.5 12.5t-96.5 36t-79.5 58t-53.5 79.5q-6 14 -15 37t-15.5 49.5t-8.5 55t4 57.5q16 61 38 101t59 75q31 29 68.5 53.5t99.5 43.5q45 14 103 20t114 2q53 -4 95 -11t64 -5q8 0 -3 12 t-31.5 27.5t-46 31t-44.5 21.5q-37 12 -78.5 16t-52.5 6q-23 2 -54.5 0t-62 -6t-55 -9t-32.5 -7q-23 -6 -43.5 -13.5t-45 -17.5t-55 -27.5t-69.5 -44.5q-27 -18 -46.5 -32.5t-33.5 -28.5q-86 -80 -125 -168q0 -63 -2 -112.5t-2 -92.5t1 -85t7 -89q-59 -49 -80 -49 q-16 0 -47 12q-4 53 -5 86t-3 56q0 53 1 95t2 75.5t2 62.5t3 57q0 133 -117 205q-100 57 -182 49q-125 -14 -213 -114q-86 -96 -86 -240q0 -104 55 -184q47 -68 99 -76q8 -14 8 -27q0 -23 -17.5 -37t-40.5 -10q-63 31 -104 103q-61 106 -62 278q0 176 113 326 q119 150 270 149q156 0 246 -90q84 -80 119 -244q23 41 49.5 75t59.5 73q14 16 59 54t118.5 77t176 68.5t229.5 29.5q35 0 69 -7t73 -13q145 -23 237 -127q18 -23 33.5 -53.5t26.5 -55.5q2 -6 49 -8t102 -2t104.5 1t55.5 1q8 2 50 11.5t83 23.5q14 6 29.5 18.5t27 26.5 t19.5 25.5t8 13.5q4 12 -14.5 36.5t-63.5 47.5q-12 6 -34.5 5t-47 -4t-44 -7t-25.5 -6q-16 -4 -31 3t-19 22.5t4.5 36t36.5 42.5q6 4 20.5 12.5t33 14.5t39 8t38.5 -4q8 -4 26.5 -8.5t41.5 -16.5t46.5 -35.5t41.5 -62.5q8 -16 13 -47t1 -45q-4 -16 -22.5 -52t-48.5 -59 q-16 -12 -47 -24.5t-63 -23.5t-57.5 -18.5t-31.5 -9.5q-23 -6 -70 -13t-96 -13t-86 -12.5t-37 -12.5v-26q-2 -10 -3 -18.5t-1 -12.5zM1788 301q18 27 33.5 62.5t15.5 72.5v43t-5 43.5t-14.5 35.5t-27.5 22q-43 12 -96 12q-51 0 -105 -8q-127 -16 -205.5 -45t-103.5 -93 q-31 -78 -28 -139t61 -108q37 -31 101.5 -50.5t158.5 -3.5q80 14 132 63.5t87 96.5z" />
<glyph unicode="&#xd73;" horiz-adv-x="1171" d="M1165 909q0 -18 2 -40.5t-2 -43.5q-4 -16 -10 -26.5t-6 -24.5q-74 0 -142.5 4t-140.5 4q-102 0 -204.5 10.5t-206.5 10.5q-57 0 -101.5 -5t-70.5 -16q-35 -16 -54.5 -64t-29.5 -100q-2 -4 -2 -32q0 -39 10 -66q2 10 6 21.5t8 23.5q51 98 174 99q80 0 127 -53.5t47 -135.5 q0 -92 -52 -142t-144 -50q-123 0 -201 114q-68 100 -68 230q0 135 93 209q82 68 221 67q66 0 136.5 -1t135.5 -1q88 0 165 1t161 -1q35 -2 74.5 0t74.5 2v6zM408 600q-72 23 -117 -10t-51 -96q-2 -16 5 -35t11 -35q4 -4 4 -6l14 -17q20 -10 43 -20t41 -10q51 0 93.5 21.5 t42.5 66.5q0 23 -5.5 48t-15.5 46.5t-26.5 36t-38.5 14.5v-4z" />
<glyph unicode="&#xd74;" horiz-adv-x="1312" d="M1280 346q-37 -109 -145 -223q-119 -121 -203 -113q-109 0 -184 76q-74 76 -74 190l-4 486q-47 0 -119 -18.5t-139 -57.5q-106 -61 -172 -151q-74 -102 -74 -216q0 -66 25.5 -110.5t76.5 -97.5q0 -4 9.5 -8.5t21.5 -7.5t25.5 -1t23.5 12q14 16 18.5 39t1.5 44.5t-8.5 36 t-7.5 12.5l-22 11q-21 11 -44.5 24.5t-40 25.5t-5.5 14q6 0 35.5 3t60.5 -11q33 -14 53.5 -32.5t30.5 -24.5q20 -16 26.5 -48t4.5 -66t-10.5 -62.5t-20.5 -36.5q-37 -29 -80 -30t-78 7t-55.5 19.5t-13.5 9.5q-39 37 -61.5 110.5t-22.5 165.5q0 154 65.5 280t200.5 212 q70 45 127 68q88 37 172 36l-4 357q14 41 43.5 62.5t62.5 21.5q16 0 29 -6v-428q129 0 287 -97q100 -63 156.5 -151t56.5 -193q0 -63 -25 -133zM1188 330q4 16 6 26.5t4 14.5v28q0 115 -76 209q-61 76 -144 116t-175 40l4 -445q0 -76 48 -124t120 -48q39 0 57 9 q117 37 156 174z" />
<glyph unicode="&#xd75;" horiz-adv-x="2031" d="M2019 469q-23 -176 -176 -317q-131 -119 -260 -138q-23 0 -43 -1t-41 -1q-207 0 -311 164q-92 150 -92 385v49q0 12 1 25.5t3 30.5q-27 -18 -46.5 -33t-33.5 -29q-86 -80 -125 -168v-59q0 -31 -2 -70t-2 -67v-41q0 -37 2 -74t6 -78q-59 -49 -80 -49q-16 0 -47 12 q-4 53 -5 91t-3 61v69q0 55 2 109.5t6 112.5q0 133 -117 204q-100 57 -182 50q-125 -14 -213 -115q-86 -96 -86 -240q0 -104 55 -184q47 -68 99 -76q4 -4 26.5 2t42.5 17q4 2 13.5 14t18.5 24.5t15 22.5l7 10q0 2 -2.5 18.5t-8.5 38t-17 42t-29.5 33t-50.5 23.5t-60.5 21.5 t-44 15.5t1.5 5q10 0 20 4t25.5 7t38.5 3q25 0 61 -8q57 -14 85 -37.5t30 -25.5q16 -16 25.5 -55.5t4.5 -84.5q-4 -27 -16 -50t-27.5 -41.5t-31 -32t-23.5 -15.5q-16 -6 -40.5 -11t-48.5 -8.5t-42 -4.5t-22 -1q-63 31 -105 103q-61 106 -61 278q0 176 112 326 q119 150 271 149q156 0 245 -90q84 -80 119 -243q23 41 53.5 74.5t67.5 68.5q31 29 60.5 47.5t62.5 32.5q-2 10 -2 18v19v33q0 49 3 109.5t7 135.5q2 27 4 63t6 79q12 35 30.5 55t49.5 20q29 0 42 -20.5t18 -50.5l-25 -377q29 14 60.5 23.5t64.5 17.5q82 20 188 20 q66 0 144 -12q145 -23 237 -127t92 -244v-26q-2 -10 -3 -18.5t-1 -12.5zM1862 274q43 74 43 170q0 109 -60 191q-63 90 -188 125q-61 16 -158 16q-72 0 -140.5 -11t-121.5 -36q0 -158 18 -270q25 -168 103 -240q49 -47 109.5 -68.5t119.5 -21.5q86 0 161 39.5t114 105.5z " />
<glyph unicode="&#xd79;" horiz-adv-x="1992" d="M1714 545q0 -92 -29.5 -181.5t-74.5 -181.5q-6 -14 -25.5 -41.5t-50.5 -55.5t-76 -51.5t-102 -29.5q-23 -2 -58 -2q-33 0 -63.5 5t-48 16.5t-2.5 29.5q258 33 329 113q47 72 72 149.5t25 169.5q0 115 -107 166q-115 98 -272 99q-33 0 -39 -2q-186 -18 -293 -123 q-90 -90 -90 -189q-2 -35 -3 -79t-1 -97q0 -66 3 -110t11 -52q0 -27 -28.5 -56.5t-61.5 -35.5q-27 -6 -44 11.5t-17 52.5q0 70 1 153.5t3 149.5q0 182 -39 252q-49 92 -178 92q-127 0 -203 -111q-78 -109 -78 -260q0 -115 55 -190q49 -66 103 -72q8 -6 8 -18 q0 -20 -23.5 -42t-52.5 -22q-61 33 -100 107q-57 106 -58 284q0 180 109 338q111 156 262 156q129 0 209 -68q100 -86 100 -192q78 133 195 207q131 80 311 79q195 0 310 -120q112 -119 112 -248zM1047 610q152 66 413 19q66 -12 150 -11.5t162.5 -1.5t137 -15t75.5 -52 q12 -31 -24 -38t-89 -2t-109.5 17.5t-87.5 20.5q-18 12 -44.5 13t-59.5 -1t-69 -4t-70 4q-72 14 -142.5 13t-142.5 -15q-141 -72 -174 -182q-18 -102 112 -211q68 -68 209 -103q43 -27 56.5 -39t0 -17t-50 -3t-94.5 6q-66 4 -134 34t-122 99q-10 14 -20 27.5t-21 26.5 q-82 104 -49 225q35 127 187 190z" />
<glyph unicode="&#xd7a;" horiz-adv-x="2770" d="M2767 479q-14 -94 -59.5 -170t-122.5 -141q-63 -53 -130 -84t-135 -41q-20 0 -38.5 -1t-36.5 -1q-213 0 -308 197q-78 166 -77 444q-16 -6 -27.5 -11t-22.5 -12q-115 -74 -145 -184q0 -76 -1 -136t-3 -122q0 -31 1 -66.5t3 -76.5q-57 -47 -76 -47q-20 0 -47 12 q0 80 -2 155.5t-4 153.5v60q0 16 1 30.5t3 32.5q-23 59 -65.5 85t-106.5 26h-18q-80 0 -136.5 -45t-72.5 -119q-4 -41 -8.5 -90t-4.5 -119v-31v-28q0 -33 9 -80q-37 -43 -76 -43q-23 0 -49 20q0 70 3 152t7 180q0 41 6 96q-23 90 -96.5 152.5t-179.5 85.5q-18 4 -43 5t-47 1 q-172 0 -302 -111q-123 -115 -122 -237q0 -35 8 -54q16 47 53 91.5t88 85.5q123 92 246 92q104 0 160.5 -44t80.5 -130q6 -25 7 -50q0 -61 -30 -120.5t-89 -118.5q-127 -119 -293 -119q-135 0 -236 80q-102 92 -102 217q0 27 6 57q33 168 211 318q186 162 395 162 q86 0 171 -33t149 -113q23 -33 41 -65.5t29 -71.5q51 51 114 86q100 55 191 55q63 0 123 -37q25 -16 75 -79q23 33 49.5 65.5t61.5 61.5q49 43 117 73q-2 8 -2 17v16v41q0 90 6 217q2 23 4 52.5t6 70.5q10 33 28.5 52.5t47.5 19.5t45 -17.5t20 -44.5l-24 -352 q39 12 72.5 20.5t62.5 12.5q51 10 96 15t84 5q31 0 65.5 -3t69.5 -7q137 -20 230 -125q96 -106 96 -240q0 -18 -1 -29.5t-3 -21.5zM2599 293q45 84 45 170q0 104 -57 182q-61 88 -179 117q-31 8 -76.5 14t-111.5 6q-70 0 -127 -8t-102 -29q0 -96 3 -162.5t7 -107.5 q27 -180 102 -233q111 -88 238 -88q86 0 154.5 38t103.5 101zM774 240q6 18 6 45q0 33 -14 62.5t-41 52t-61.5 36t-73.5 13.5q-47 0 -96.5 -14.5t-96.5 -49.5q-92 -57 -123 -133q61 -96 213 -119q6 -2 41 -2q41 0 82 8t75 23.5t57.5 35t31.5 42.5z" />
<glyph unicode="&#xd7b;" horiz-adv-x="2019" d="M2015 471q-23 -176 -176 -317q-131 -119 -260 -138q-23 0 -43 -1t-41 -1q-207 0 -311 164q-92 150 -92 385v49q0 12 1 25.5t3 30.5q-27 -18 -46.5 -32.5t-33.5 -29.5q-86 -80 -125 -168v-59q0 -31 -2 -70t-2 -67v-41q0 -37 2 -74t6 -78q-59 -49 -80 -49q-16 0 -47 12 q-4 53 -5 91t-3 61v69q0 55 2 109.5t6 112.5q0 133 -117 204q-100 57 -182 50q-125 -14 -213 -115q-86 -96 -86 -240q0 -104 55 -184q47 -68 99 -76q8 -14 8 -26q0 -23 -17.5 -37.5t-40.5 -10.5q-63 31 -104 103q-61 106 -61 278q0 176 112 326q119 150 271 150 q156 0 245 -91q84 -80 119 -243q23 41 53.5 74.5t67.5 68.5q31 29 60.5 47.5t62.5 32.5q-2 10 -2 18v19v33q0 49 3 109.5t7 135.5q2 27 4 63t6 79q12 35 30.5 55t49.5 20q29 0 42 -20.5t17 -50.5l-24 -377q29 14 60.5 23.5t64.5 17.5q82 20 188 20q66 0 144 -12 q145 -23 237 -127t92 -244v-26q-2 -10 -3 -18.5t-1 -12.5zM1858 276q43 74 43 170q0 109 -60 191q-63 90 -188 125q-61 16 -158 16q-72 0 -140.5 -11t-121.5 -36q0 -158 18 -270q25 -168 103 -240q49 -47 109.5 -68.5t119.5 -21.5q86 0 161 39.5t114 105.5z" />
<glyph unicode="&#xd7c;" horiz-adv-x="1312" d="M1276 334q-37 -109 -146 -223q-119 -121 -202 -113q-109 0 -185 76q-74 76 -73 190l-4 486q-47 0 -119 -18.5t-139 -57.5q-106 -61 -172 -152q-74 -102 -74 -215q0 -66 26.5 -122t77.5 -109q6 -23 -13.5 -40.5t-41.5 -17.5q-16 0 -23 11q-39 37 -61.5 110.5t-22.5 165.5 q0 154 66 280t201 212q70 45 127 67q88 37 172 37l-4 356q14 41 43.5 62.5t62.5 21.5q16 0 29 -6v-428q129 0 286 -96q100 -63 156.5 -151.5t56.5 -192.5q1 -63 -24 -133zM1184 317q4 16 6 26.5t4 14.5v29q0 115 -76 209q-61 76 -144 116t-175 40l4 -445q0 -76 48 -124 t120 -48q39 0 57 8q117 37 156 174z" />
</font>
</defs>
</svg>
